<svg width="71" height="70" viewBox="0 0 71 70" fill="none" xmlns="http://www.w3.org/2000/svg">
<rect x="14.4612" y="27.9149" width="24.3055" height="24.3055" transform="rotate(-30 14.4612 27.9149)" fill="#E0FF00"/>
<path d="M1.34375 32.6611C4.7814 39.1926 12.0005 49.7118 7.87529 60.1623" stroke="#333333" stroke-width="2"/>
<path d="M5.46895 61.5373C8.79201 58.7872 21.8322 53.3557 37.7829 55.0058M32.6264 59.4747C29.811 51.7525 26.205 38.1011 27.6356 29.2234M1 37.4738C10.1671 37.3592 19.2196 37.4738 32.6264 31.9735" stroke="#333333" stroke-width="2"/>
<path d="M28.4851 11.8923C32.3073 19.1544 40.3339 30.8503 35.7472 42.4697" stroke="#333333" stroke-width="2"/>
<path d="M33.0716 43.9985C36.7664 40.9408 51.2652 34.9018 69.0001 36.7364M63.2668 41.7052C60.1365 33.1192 56.1272 17.9408 57.7178 8.07007M28.1028 17.2433C38.2953 17.1159 48.3603 17.2433 63.2668 11.1278" stroke="#333333" stroke-width="2"/>
</svg>
