<svg width="70" height="70" viewBox="0 0 70 70" fill="none" xmlns="http://www.w3.org/2000/svg">
<circle cx="26.5033" cy="38.0723" r="24.5033" fill="#E0FF00"/>
<path d="M16.0237 36.6465C16.8543 40.2496 18.1706 48.6015 16.7904 53.1846" stroke="#333333" stroke-width="2"/>
<path d="M27.4219 36.6463C28.5294 40.2494 30.2844 48.6013 28.4442 53.1844" stroke="#333333" stroke-width="2"/>
<path d="M18.3032 54.0703C21.1148 52.7905 27.6043 50.4083 31.0694 51.117" stroke="#333333" stroke-width="2"/>
<path d="M17.6196 36.6463C19.5954 37.2369 24.7778 38.3592 29.7019 38.1229" stroke="#333333" stroke-width="2"/>
<path d="M34.261 26.0146C35.3685 31.9339 37.1235 45.6549 35.2833 53.1843" stroke="#333333" stroke-width="2"/>
<path d="M46.1152 26.0146C46.9459 31.9339 48.2621 45.6549 46.882 53.1843" stroke="#333333" stroke-width="2"/>
<path d="M36.769 54.0701C39.5807 52.7904 46.0701 50.4081 49.5353 51.1169" stroke="#333333" stroke-width="2"/>
<path d="M36.085 24.2426C38.0607 24.8333 43.2432 25.9555 48.1673 25.7193" stroke="#333333" stroke-width="2"/>
<path d="M52.7268 8C53.7147 17.8441 55.2801 40.6627 53.6387 53.1843" stroke="#333333" stroke-width="2"/>
<path d="M64.3523 8C65.3402 17.8441 66.9055 40.6627 65.2642 53.1843" stroke="#333333" stroke-width="2"/>
<path d="M55.2339 54.0701C58.0455 52.7904 64.535 50.4081 68.0001 51.1169" stroke="#333333" stroke-width="2"/>
<path d="M54.5503 8C56.526 8.59065 61.7085 9.71287 66.6326 9.47661" stroke="#333333" stroke-width="2"/>
</svg>
