<svg width="70" height="70" viewBox="0 0 70 70" fill="none" xmlns="http://www.w3.org/2000/svg">
<path d="M50.8914 31.0224C53.5029 23.9413 61.1881 13.3197 36.3416 13.3197C11.4952 13.3197 -7.66521 36.5474 26.3588 40.3092C60.3829 44.071 43.1624 58.0899 10.9291 60.9666" stroke="#E0FF00" stroke-width="3"/>
<path d="M39.4392 20.0191C44.1752 19.456 51.9504 18.7665 58.7098 18.6964" stroke="#333333" stroke-width="2"/>
<path d="M41.3853 38.2415C46.1904 37.3205 54.96 36.0351 61.9999 36.0139" stroke="#333333" stroke-width="2"/>
<path d="M42.093 16.8346C41.9161 23.9702 42.093 35.4107 42.093 35.4107" stroke="#333333" stroke-width="2"/>
<path d="M61.7086 17.7193C61.0009 23.0857 59.7979 34.6678 60.6471 38.0646" stroke="#333333" stroke-width="2"/>
<path d="M22.4502 37.882C23.973 37.7009 26.4732 37.4792 28.6466 37.4567" stroke="#333333" stroke-width="2"/>
<path d="M23.0759 43.7413C24.621 43.4452 27.4408 43.0319 29.7045 43.025" stroke="#333333" stroke-width="2"/>
<path d="M23.3041 36.858C23.2472 39.1525 23.3041 42.8311 23.3041 42.8311" stroke="#333333" stroke-width="2"/>
<path d="M29.611 37.1424C29.3835 38.868 28.9966 42.5922 29.2697 43.6844" stroke="#333333" stroke-width="2"/>
<path d="M15.811 11.475C18.0045 11.2142 21.6056 10.8949 24.7362 10.8624" stroke="#333333" stroke-width="2"/>
<path d="M16.7122 19.9146C18.9377 19.488 22.9993 18.8927 26.2598 18.8829" stroke="#333333" stroke-width="2"/>
<path d="M17.0403 10C16.9584 13.3049 17.0403 18.6035 17.0403 18.6035" stroke="#333333" stroke-width="2"/>
<path d="M26.125 10.4097C25.7972 12.8952 25.24 18.2594 25.6333 19.8326" stroke="#333333" stroke-width="2"/>
</svg>
