<svg width="100%" height="95.77464788732394%" viewBox="0 0 71 68" fill="none" xmlns="http://www.w3.org/2000/svg">
<circle cx="33.5" cy="15.5" r="11.5" fill="#E0FF00"/>
<path d="M19 22.2731C15.883 23.5224 10.3067 28.1518 9.84989 37.3033M59.2857 27.4263C60.2857 27.8558 62.2857 29.1441 62.2857 30.8618C62.2857 33.009 64.8571 35.5856 66.5714 36.015C68.2857 36.4444 70 38.1622 70 41.5976C70 45.0331 68.7143 46.3214 66.5714 47.1803C64.4286 48.0391 63.5714 46.7508 61.4286 50.1863C59.2857 53.6218 54.5714 55.769 53.2857 56.6278C52 57.4867 52.4286 58.775 52.4286 63.0693C52.4286 67.3637 49.4286 66.9342 47.7143 66.9342C46 66.9342 42.5714 66.9342 43 63.0693C43.4286 59.2044 39.5714 60.0633 35.7143 60.0633C31.8571 60.0633 31 60.4927 30.5714 63.0693C30.1429 65.6459 29.2857 67.3637 24.5714 66.9342C19.8571 66.5048 21.5714 61.3516 20.7143 58.775C19.8571 56.1984 11.7143 56.6278 9.99999 41.5976C9.8255 40.0677 9.78329 38.6375 9.84989 37.3033M53.2857 36.015C53.7143 37.017 55.0857 39.021 57.1429 39.021C59.2 39.021 59.4286 37.017 59.2857 36.015M43.4286 7.67236C42.7143 4.95261 39.0572 -0.143341 30.1429 1.23085C19 2.94858 19.4286 13.6845 21.1429 17.9788C22.5143 21.4142 26 24.2771 27.5714 25.2792M37.8571 25.2792C39.2857 24.4203 42.5714 21.9296 44.2857 18.8377C46 15.7457 46.4286 13.5413 46.4286 12.8256M42.1429 27.4263C41.7143 26.7106 39.0571 25.2792 31.8571 25.2792C24.6571 25.2792 23.1429 26.7106 23.2857 27.4263M1 41.5976C4 41.3114 9.57143 39.6223 7.85714 35.1561C5.71429 29.5735 1.85714 34.2972 4 36.015C5.71429 37.3892 8.61421 37.4465 9.84989 37.3033M56.7143 16.6905C53.5714 16.8336 47.1143 18.4082 46.4286 23.5614C45.5714 30.0029 49.8571 32.1501 53.2857 32.1501C56.7143 32.1501 61.8571 28.7146 56.7143 16.6905Z" stroke="black" stroke-width="2" stroke-linecap="round" stroke-linejoin="round"/>
</svg>
