<svg width="100%" height="78%" viewBox="0 0 112 78" fill="none" xmlns="http://www.w3.org/2000/svg">
<path d="M1 77C7.40449 63.7087 18.8316 47.3501 24.2584 47.3501C27.2921 47.3501 29.8047 56.5518 32.3483 56.5517C37.4045 56.5516 58.5425 23.8801 60.6629 28.4357C64.7079 37.1261 84.9326 71.888 91 77" stroke="black" stroke-width="2"/>
<path d="M46 44C46.3129 45.3325 47.3143 47.7976 48.8163 46.9981C50.6939 45.9987 52.102 44 53.0408 45.4991C53.9796 46.9981 54.449 51.4953 58.2041 49.4965C61.9592 47.4978 60.0816 43.0006 63.8367 44.9994C67.5918 46.9981 68.5306 46.9981 69 46.4984" stroke="black" stroke-width="2" stroke-linecap="round" stroke-linejoin="round"/>
<path d="M59.6455 28.4096V2" stroke="black" stroke-width="2" stroke-linecap="round" stroke-linejoin="round"/>
<path d="M88.2636 4.75537H60.9937V19.3528C63.4869 19.3528 80.2125 21.4381 88.2636 22.4808L83.5887 13.0967L88.2636 4.75537Z" fill="#E0FF00"/>
<path d="M59.6455 3.46704H78.7191L75.4493 9.33584L78.7191 15.9382C73.0878 15.2046 61.3894 13.7374 59.6455 13.7374" stroke="black" stroke-width="2" stroke-linecap="round" stroke-linejoin="round"/>
<path d="M96.5 24.5L102.5 31.5M98.5 14.5L110.5 16M95 4.5L104.5 1" stroke="black" stroke-width="2" stroke-linecap="round"/>
</svg>
