<svg width="100%" height="60%" viewBox="0 0 129 60" fill="none" xmlns="http://www.w3.org/2000/svg">
<path d="M61.6957 3.52174L129 0V33.6522L57 36L61.6957 3.52174Z" fill="#E0FF00"/>
<path d="M7.13281 23.3242C7.1901 23.5247 7.16146 23.7396 7.04688 23.9688C6.93229 24.1979 6.76042 24.334 6.53125 24.377C5.75781 24.5059 4.99154 24.4987 4.23242 24.3555C3.47331 24.1979 2.77148 23.8685 2.12695 23.3672C1.49674 22.8659 1.04557 22.2285 0.773438 21.4551C0.515625 20.6673 0.472656 19.8796 0.644531 19.0918C0.802083 18.39 1.13151 17.7812 1.63281 17.2656C2.13411 16.75 2.70703 16.349 3.35156 16.0625C3.92448 15.7904 4.52604 15.5755 5.15625 15.418C5.78646 15.2604 6.41667 15.2103 7.04688 15.2676C7.29036 15.2962 7.49089 15.3893 7.64844 15.5469C7.82031 15.6901 7.90625 15.8835 7.90625 16.127C7.90625 16.3418 7.82031 16.5423 7.64844 16.7285C7.49089 16.9147 7.29036 17.0007 7.04688 16.9863C6.58854 16.9434 6.13737 16.9648 5.69336 17.0508C5.24935 17.1367 4.81966 17.2728 4.4043 17.459C4.16081 17.5736 3.91732 17.6953 3.67383 17.8242C3.44466 17.9531 3.24414 18.0964 3.07227 18.2539C2.88607 18.4258 2.72852 18.5977 2.59961 18.7695C2.48503 18.9414 2.39909 19.1419 2.3418 19.3711C2.28451 19.6003 2.26302 19.8438 2.27734 20.1016C2.29167 20.3594 2.33464 20.6172 2.40625 20.875C2.49219 21.1185 2.60677 21.3477 2.75 21.5625C2.89323 21.763 3.0651 21.9349 3.26562 22.0781C3.68099 22.3789 4.13216 22.5866 4.61914 22.7012C5.12044 22.8014 5.60742 22.8086 6.08008 22.7227C6.30924 22.6797 6.52409 22.7083 6.72461 22.8086C6.92513 22.9089 7.0612 23.0807 7.13281 23.3242ZM19.1632 17.416C19.1775 18.6478 19.2635 19.8796 19.421 21.1113C19.5786 22.3431 19.7863 23.5605 20.0441 24.7637C20.1014 25.0358 20.0512 25.2578 19.8937 25.4297C19.7504 25.6159 19.5786 25.7376 19.378 25.7949C19.1775 25.8522 18.977 25.8379 18.7765 25.752C18.576 25.666 18.4471 25.487 18.3898 25.2148C18.2179 24.3984 18.0675 23.5964 17.9386 22.8086C17.8813 22.8802 17.8312 22.9518 17.7882 23.0234C17.7452 23.0807 17.6951 23.1452 17.6378 23.2168C17.3514 23.5605 17.0219 23.8613 16.6495 24.1191C16.2771 24.3626 15.8761 24.556 15.4464 24.6992C15.031 24.8281 14.6014 24.8997 14.1573 24.9141C13.7133 24.9284 13.2765 24.8783 12.8468 24.7637C12.0877 24.5488 11.5076 24.1764 11.1066 23.6465C10.7055 23.1165 10.4191 22.515 10.2472 21.8418C10.0753 21.1543 9.97505 20.4453 9.94641 19.7148C9.91776 18.9701 9.89628 18.2826 9.88195 17.6523C9.88195 17.3802 9.96789 17.1797 10.1398 17.0508C10.3116 16.9076 10.505 16.8359 10.7198 16.8359C10.9347 16.8359 11.128 16.9076 11.2999 17.0508C11.4861 17.1797 11.5864 17.3802 11.6007 17.6523C11.615 18.2253 11.6222 18.8053 11.6222 19.3926C11.6365 19.9798 11.701 20.5312 11.8155 21.0469C11.8728 21.3333 11.9373 21.584 12.0089 21.7988C12.0805 21.9993 12.1951 22.2142 12.3527 22.4434C12.4243 22.5436 12.4601 22.6009 12.4601 22.6152C12.4744 22.6296 12.4959 22.6439 12.5245 22.6582C12.7394 22.8301 12.8826 22.9375 12.9542 22.9805C13.0258 23.0091 13.1118 23.0378 13.212 23.0664C13.8136 23.2383 14.4223 23.224 15.0382 23.0234C15.6541 22.8086 16.1482 22.429 16.5206 21.8848C16.7355 21.541 16.893 21.1829 16.9933 20.8105C17.1079 20.4382 17.1866 20.0658 17.2296 19.6934C17.2726 19.3066 17.3012 18.9199 17.3155 18.5332C17.3442 18.1322 17.3872 17.7383 17.4445 17.3516C17.4445 16.9219 17.5519 16.6426 17.7667 16.5137C17.9959 16.3704 18.2322 16.3203 18.4757 16.3633C18.6189 16.4062 18.7335 16.4564 18.8195 16.5137L18.9913 16.6641C19.1489 16.9219 19.2062 17.1725 19.1632 17.416ZM22.8577 16.2559C22.872 15.9837 22.9722 15.7832 23.1584 15.6543C23.3446 15.5111 23.5452 15.4395 23.76 15.4395C23.9748 15.4395 24.161 15.5111 24.3186 15.6543C24.4905 15.7832 24.5692 15.9837 24.5549 16.2559C24.5549 16.3418 24.5478 16.4349 24.5334 16.5352C24.5334 16.6211 24.5334 16.707 24.5334 16.793C24.9918 16.5638 25.4716 16.3704 25.9729 16.2129C26.4885 16.041 26.997 15.9336 27.4983 15.8906C28.0139 15.8477 28.508 15.8906 28.9807 16.0195C29.4677 16.1341 29.9117 16.3633 30.3127 16.707C30.5133 16.8932 30.5992 17.0938 30.5705 17.3086C30.5562 17.5234 30.4703 17.7096 30.3127 17.8672C30.1695 18.0104 29.9833 18.1035 29.7541 18.1465C29.525 18.1751 29.303 18.1035 29.0881 17.9316C28.9306 17.8027 28.7515 17.7096 28.551 17.6523C28.3648 17.5951 28.1571 17.5736 27.928 17.5879C27.7131 17.5879 27.4911 17.6094 27.262 17.6523C27.0471 17.6953 26.8394 17.7454 26.6389 17.8027C25.8798 18.0462 25.1708 18.3685 24.512 18.7695C24.5406 19.4714 24.5836 20.1732 24.6409 20.875C24.6982 21.4622 24.7483 22.071 24.7913 22.7012C24.8342 23.3171 24.956 23.9043 25.1565 24.4629C25.2424 24.7207 25.2209 24.9355 25.092 25.1074C24.9774 25.2936 24.8127 25.4154 24.5979 25.4727C24.3974 25.5299 24.1825 25.5156 23.9534 25.4297C23.7385 25.3438 23.5881 25.1719 23.5022 24.9141C23.3876 24.5846 23.3088 24.248 23.2659 23.9043C23.2229 23.5605 23.1799 23.2168 23.137 22.873C23.1083 22.5436 23.0725 22.2142 23.0295 21.8848C23.0009 21.541 22.9722 21.2044 22.9436 20.875C22.872 20.1016 22.8218 19.3353 22.7932 18.5762C22.7789 17.8027 22.8004 17.0293 22.8577 16.2559ZM33.2552 20.2305C32.8828 19.9583 32.6179 19.6217 32.4603 19.2207C32.3028 18.8053 32.2956 18.3685 32.4388 17.9102C32.5821 17.4948 32.8041 17.1224 33.1048 16.793C33.4056 16.4635 33.7494 16.1986 34.1361 15.998C34.5658 15.7689 35.0241 15.5898 35.5111 15.4609C35.9981 15.332 36.4922 15.2604 36.9935 15.2461C37.4948 15.2318 37.989 15.2819 38.4759 15.3965C38.9772 15.4967 39.4499 15.6615 39.8939 15.8906C40.1374 16.0195 40.2735 16.1914 40.3021 16.4062C40.3308 16.6211 40.2878 16.8216 40.1732 17.0078C40.0729 17.194 39.9154 17.3301 39.7005 17.416C39.4857 17.502 39.2565 17.4805 39.013 17.3516C38.6693 17.1654 38.2826 17.0436 37.8529 16.9863C37.4232 16.929 36.9864 16.929 36.5423 16.9863C36.1127 17.0293 35.7045 17.1367 35.3177 17.3086C34.931 17.4805 34.6087 17.7025 34.3509 17.9746C34.2793 18.0462 34.2292 18.0964 34.2005 18.125C34.1862 18.1536 34.1576 18.2181 34.1146 18.3184L34.0716 18.5547C34.1146 18.6836 34.1504 18.7624 34.1791 18.791C34.4655 18.9772 34.7591 19.099 35.0599 19.1562C35.375 19.1992 35.6901 19.2279 36.0052 19.2422C36.4492 19.2708 36.9004 19.2995 37.3587 19.3281C37.8314 19.3424 38.2826 19.3997 38.7123 19.5C39.1563 19.6003 39.5645 19.765 39.9369 19.9941C40.3093 20.2233 40.6244 20.5599 40.8822 21.0039C41.1686 21.5052 41.2976 22.028 41.2689 22.5723C41.2546 23.1022 41.0469 23.582 40.6459 24.0117C40.2448 24.4414 39.7793 24.7422 39.2494 24.9141C38.7194 25.0716 38.1823 25.1862 37.638 25.2578C37.1511 25.3151 36.6426 25.3294 36.1127 25.3008C35.597 25.2721 35.0957 25.1862 34.6087 25.043C34.1361 24.9141 33.6921 24.7135 33.2767 24.4414C32.8614 24.1549 32.5176 23.7826 32.2455 23.3242C32.1166 23.0951 32.0951 22.8802 32.181 22.6797C32.267 22.4648 32.3959 22.3073 32.5677 22.207C32.7539 22.0924 32.9545 22.0495 33.1693 22.0781C33.3985 22.1068 33.5847 22.2357 33.7279 22.4648C33.9284 22.7943 34.2077 23.0449 34.5658 23.2168C34.9239 23.3887 35.3106 23.5104 35.7259 23.582C36.1556 23.6393 36.5853 23.6536 37.015 23.625C37.4447 23.582 37.8314 23.5247 38.1752 23.4531C38.3614 23.4102 38.5476 23.3529 38.7337 23.2812C38.9343 23.1953 39.099 23.0951 39.2279 22.9805C39.3711 22.8659 39.4714 22.737 39.5287 22.5938C39.586 22.4362 39.5788 22.2643 39.5072 22.0781C39.364 21.7201 39.1205 21.4622 38.7767 21.3047C38.4473 21.1471 38.0964 21.054 37.724 21.0254C37.3516 20.9967 36.972 20.9824 36.5853 20.9824C36.1986 20.9824 35.8119 20.9681 35.4252 20.9395C35.0384 20.8965 34.6589 20.8249 34.2865 20.7246C33.9141 20.6243 33.5703 20.4596 33.2552 20.2305ZM49.0239 15.0957C49.4822 15.0384 49.9621 15.0241 50.4634 15.0527C50.9647 15.0671 51.4445 15.153 51.9028 15.3105C52.3611 15.4538 52.7765 15.6758 53.1489 15.9766C53.5213 16.2773 53.8078 16.6712 54.0083 17.1582C54.1515 17.502 54.2231 17.8529 54.2231 18.2109C54.2374 18.5547 54.1873 18.8913 54.0727 19.2207C53.9725 19.5358 53.8149 19.8438 53.6001 20.1445C53.3996 20.431 53.1632 20.696 52.8911 20.9395C52.3039 21.4694 51.6593 21.9206 50.9575 22.293C50.2557 22.6654 49.518 22.9518 48.7446 23.1523C48.4152 23.2383 48.0714 23.3171 47.7134 23.3887C47.3696 23.446 47.0187 23.4746 46.6606 23.4746C46.3026 23.4746 45.9516 23.4388 45.6079 23.3672C45.2641 23.2812 44.9419 23.1452 44.6411 22.959C44.4263 22.8301 44.2973 22.6582 44.2544 22.4434C44.1684 22.1999 44.0753 21.9707 43.9751 21.7559C43.8748 21.541 43.7746 21.319 43.6743 21.0898C43.5884 20.8607 43.5167 20.6315 43.4595 20.4023C43.4022 20.1732 43.3735 19.9368 43.3735 19.6934C43.3735 19.2064 43.4738 18.748 43.6743 18.3184C43.8891 17.8743 44.1756 17.4876 44.5337 17.1582C45.1352 16.5853 45.8299 16.127 46.6177 15.7832C47.4054 15.4395 48.2075 15.2103 49.0239 15.0957ZM51.4516 16.9434C51.0649 16.8001 50.6496 16.7285 50.2055 16.7285C49.7329 16.7142 49.2602 16.7643 48.7876 16.8789C48.3149 16.9792 47.8638 17.1224 47.4341 17.3086C47.033 17.4661 46.6177 17.6882 46.188 17.9746C45.7726 18.2467 45.4647 18.5833 45.2641 18.9844C45.1496 19.1992 45.0923 19.4212 45.0923 19.6504C45.1066 19.8652 45.1424 20.0872 45.1997 20.3164C45.2713 20.5312 45.3572 20.7533 45.4575 20.9824C45.5721 21.1973 45.6723 21.4121 45.7583 21.627C45.9874 21.6842 46.1307 21.7129 46.188 21.7129C46.2166 21.7272 46.2524 21.7344 46.2954 21.7344C46.3384 21.7344 46.3742 21.7344 46.4028 21.7344C46.6893 21.763 46.9471 21.7559 47.1763 21.7129C47.3338 21.7129 47.5343 21.6842 47.7778 21.627C48.1502 21.5553 48.5083 21.4622 48.852 21.3477C49.1958 21.2188 49.5109 21.0827 49.7973 20.9395C50.1268 20.7819 50.449 20.61 50.7641 20.4238C51.0792 20.2376 51.3442 20.0443 51.5591 19.8438C51.7023 19.7148 51.8384 19.5788 51.9673 19.4355C52.0389 19.3639 52.089 19.3066 52.1177 19.2637C52.1893 19.1634 52.2466 19.0918 52.2895 19.0488C52.3325 18.9915 52.3683 18.9271 52.397 18.8555C52.4542 18.7552 52.4829 18.6764 52.4829 18.6191C52.4972 18.5905 52.5044 18.5547 52.5044 18.5117C52.5187 18.4688 52.533 18.4329 52.5473 18.4043V18.168C52.533 18.1107 52.5259 18.0677 52.5259 18.0391C52.5259 18.0104 52.5187 17.9818 52.5044 17.9531C52.4614 17.8529 52.4184 17.7812 52.3755 17.7383C52.3468 17.681 52.311 17.6237 52.268 17.5664C52.2824 17.5807 52.2609 17.5592 52.2036 17.502C52.1606 17.4447 52.132 17.4089 52.1177 17.3945L51.9458 17.2227C51.8742 17.1797 51.7954 17.1296 51.7095 17.0723C51.6235 17.015 51.5376 16.972 51.4516 16.9434ZM64.2761 30.5C64.5912 30.8008 64.9564 31.0085 65.3718 31.123C65.7872 31.252 66.2025 31.2949 66.6179 31.252C67.0333 31.209 67.4271 31.0872 67.7995 30.8867C68.1719 30.6862 68.4799 30.4069 68.7234 30.0488C69.239 29.3184 69.5684 28.5091 69.7116 27.6211C69.8692 26.7474 69.9336 25.8665 69.905 24.9785C69.2175 25.0931 68.5085 25.1146 67.778 25.043C67.0619 24.9857 66.3816 24.8353 65.737 24.5918C65.4076 24.4629 65.0925 24.3125 64.7917 24.1406C64.5053 23.9544 64.2761 23.6966 64.1042 23.3672C63.8034 22.8086 63.6745 22.1927 63.7175 21.5195C63.7461 20.875 63.8536 20.252 64.0398 19.6504C64.2403 19.0345 64.4623 18.4258 64.7058 17.8242C64.8347 17.5378 64.9708 17.237 65.114 16.9219C65.2715 16.5924 65.4721 16.2988 65.7155 16.041C65.959 15.7689 66.2383 15.5612 66.5534 15.418C66.8685 15.2747 67.2051 15.1888 67.5632 15.1602C67.5059 14.9596 67.5059 14.7734 67.5632 14.6016C67.6205 14.4154 67.7422 14.265 67.9284 14.1504C68.1146 14.0358 68.3295 14.0072 68.573 14.0645C68.8308 14.1217 69.0098 14.2507 69.1101 14.4512C69.1674 14.5801 69.2175 14.709 69.2605 14.8379C69.3178 14.9668 69.3679 15.0957 69.4109 15.2246C69.6973 15.998 69.9551 16.7786 70.1843 17.5664C70.4278 18.3542 70.657 19.1491 70.8718 19.9512C71.1296 20.8965 71.323 21.8561 71.4519 22.8301C71.5808 23.804 71.6309 24.7923 71.6023 25.7949C71.5879 26.3535 71.5378 26.9264 71.4519 27.5137C71.3803 28.1009 71.2514 28.6667 71.0652 29.2109C70.879 29.7552 70.6355 30.2708 70.3347 30.7578C70.0339 31.2591 69.6472 31.6888 69.1745 32.0469C68.7305 32.3906 68.2364 32.6341 67.6921 32.7773C67.1622 32.9349 66.6179 32.9993 66.0593 32.9707C65.515 32.9421 64.9779 32.8203 64.448 32.6055C63.9323 32.3906 63.474 32.0898 63.073 31.7031C62.8724 31.5169 62.7865 31.3092 62.8152 31.0801C62.8438 30.8652 62.9369 30.679 63.0945 30.5215C63.2377 30.3783 63.4167 30.2923 63.6316 30.2637C63.8607 30.235 64.0756 30.3138 64.2761 30.5ZM66.6609 23.0879C67.1622 23.2168 67.6778 23.3099 68.2077 23.3672C68.752 23.4102 69.2748 23.3743 69.7761 23.2598C69.6902 22.5293 69.5612 21.8275 69.3894 21.1543C69.2318 20.4811 69.0528 19.8008 68.8523 19.1133C68.7377 18.7122 68.6159 18.3184 68.487 17.9316C68.3724 17.5449 68.2507 17.1582 68.1218 16.7715C68.0788 16.8001 68.0287 16.8216 67.9714 16.8359C67.9141 16.8359 67.8497 16.8431 67.778 16.8574C67.3484 16.8574 67.0189 17.0508 66.7898 17.4375C66.6322 17.681 66.5033 17.9388 66.403 18.2109C66.3744 18.2826 66.3458 18.3542 66.3171 18.4258C66.2885 18.4831 66.2598 18.5475 66.2312 18.6191C66.0163 19.1348 65.8301 19.6361 65.6726 20.123C65.5293 20.5957 65.4434 21.0612 65.4148 21.5195V21.9062C65.4291 22.0065 65.4434 22.0853 65.4577 22.1426C65.4864 22.2715 65.5007 22.3503 65.5007 22.3789C65.515 22.4076 65.558 22.4792 65.6296 22.5938C65.7155 22.6654 65.7943 22.7227 65.8659 22.7656C65.9376 22.8086 65.9805 22.8372 65.9948 22.8516C66.1094 22.8945 66.2168 22.9375 66.3171 22.9805C66.4317 23.0234 66.5463 23.0592 66.6609 23.0879ZM74.3084 16.2559C74.3228 15.9837 74.423 15.7832 74.6092 15.6543C74.7954 15.5111 74.9959 15.4395 75.2108 15.4395C75.4256 15.4395 75.6118 15.5111 75.7694 15.6543C75.9413 15.7832 76.02 15.9837 76.0057 16.2559C76.0057 16.3418 75.9985 16.4349 75.9842 16.5352C75.9842 16.6211 75.9842 16.707 75.9842 16.793C76.4426 16.5638 76.9224 16.3704 77.4237 16.2129C77.9393 16.041 78.4478 15.9336 78.9491 15.8906C79.4647 15.8477 79.9588 15.8906 80.4315 16.0195C80.9185 16.1341 81.3625 16.3633 81.7635 16.707C81.964 16.8932 82.05 17.0938 82.0213 17.3086C82.007 17.5234 81.9211 17.7096 81.7635 17.8672C81.6203 18.0104 81.4341 18.1035 81.2049 18.1465C80.9758 18.1751 80.7538 18.1035 80.5389 17.9316C80.3814 17.8027 80.2023 17.7096 80.0018 17.6523C79.8156 17.5951 79.6079 17.5736 79.3788 17.5879C79.1639 17.5879 78.9419 17.6094 78.7127 17.6523C78.4979 17.6953 78.2902 17.7454 78.0897 17.8027C77.3306 18.0462 76.6216 18.3685 75.9627 18.7695C75.9914 19.4714 76.0344 20.1732 76.0916 20.875C76.1489 21.4622 76.1991 22.071 76.242 22.7012C76.285 23.3171 76.4067 23.9043 76.6073 24.4629C76.6932 24.7207 76.6717 24.9355 76.5428 25.1074C76.4282 25.2936 76.2635 25.4154 76.0487 25.4727C75.8482 25.5299 75.6333 25.5156 75.4041 25.4297C75.1893 25.3438 75.0389 25.1719 74.953 24.9141C74.8384 24.5846 74.7596 24.248 74.7166 23.9043C74.6737 23.5605 74.6307 23.2168 74.5877 22.873C74.5591 22.5436 74.5233 22.2142 74.4803 21.8848C74.4517 21.541 74.423 21.2044 74.3944 20.875C74.3228 20.1016 74.2726 19.3353 74.244 18.5762C74.2297 17.8027 74.2511 17.0293 74.3084 16.2559ZM85.4365 24.4199C84.9495 24.2051 84.5628 23.9115 84.2763 23.5391C84.0042 23.1523 83.8108 22.7298 83.6963 22.2715C83.596 21.8132 83.5673 21.3405 83.6103 20.8535C83.6533 20.3522 83.7535 19.8724 83.9111 19.4141C84.04 19.056 84.1832 18.6836 84.3408 18.2969C84.5127 17.9102 84.7132 17.5521 84.9423 17.2227C85.1715 16.8932 85.4436 16.6139 85.7588 16.3848C86.0739 16.1413 86.4463 15.9837 86.8759 15.9121C87.3199 15.8405 87.764 15.819 88.208 15.8477C88.6663 15.862 89.1175 15.9049 89.5615 15.9766C89.762 16.0052 89.9554 16.0553 90.1416 16.127C90.3278 16.1842 90.514 16.2487 90.7002 16.3203C90.7145 16.1055 90.8076 15.9264 90.9795 15.7832C91.1657 15.64 91.359 15.5684 91.5595 15.5684C91.803 15.5684 91.9964 15.6543 92.1396 15.8262C92.2972 15.9837 92.3903 16.1771 92.4189 16.4062C92.4905 17.0651 92.5192 17.724 92.5048 18.3828C92.5048 19.0417 92.4834 19.7005 92.4404 20.3594C92.4117 21.0182 92.3831 21.6771 92.3545 22.3359C92.3401 22.9948 92.3473 23.6536 92.3759 24.3125C92.3903 24.5846 92.3043 24.7923 92.1181 24.9355C91.9463 25.0645 91.7529 25.1289 91.538 25.1289C91.3232 25.1289 91.1227 25.0645 90.9365 24.9355C90.7646 24.7923 90.6715 24.5846 90.6572 24.3125C89.8408 24.6562 88.9742 24.8568 88.0576 24.9141C87.1409 24.957 86.2672 24.7923 85.4365 24.4199ZM85.5869 19.7578C85.5009 20.0156 85.4222 20.3092 85.3505 20.6387C85.2789 20.9681 85.2574 21.2832 85.2861 21.584C85.3147 21.8848 85.4078 22.1641 85.5654 22.4219C85.7229 22.6654 85.9808 22.8372 86.3388 22.9375C87.0693 23.1667 87.7998 23.2311 88.5302 23.1309C89.275 23.0306 89.9697 22.7728 90.6142 22.3574C90.6715 21.6556 90.7145 20.9753 90.7431 20.3164C90.7861 19.6576 90.8004 18.9915 90.7861 18.3184C90.5426 18.1608 90.292 18.0247 90.0341 17.9102C89.7907 17.7812 89.5185 17.6953 89.2177 17.6523C88.917 17.6094 88.5947 17.5807 88.2509 17.5664C87.9215 17.5378 87.5992 17.5378 87.2841 17.5664C87.2555 17.5664 87.1767 17.5879 87.0478 17.6309C86.9332 17.6595 86.8688 17.681 86.8545 17.6953C86.7112 17.7669 86.5823 17.8815 86.4677 18.0391C86.2815 18.2969 86.1168 18.5762 85.9736 18.877C85.8304 19.1634 85.7015 19.457 85.5869 19.7578ZM101.979 17.502C102.251 17.502 102.451 17.5879 102.58 17.7598C102.723 17.9316 102.795 18.125 102.795 18.3398C102.795 18.5547 102.723 18.7552 102.58 18.9414C102.451 19.1133 102.251 19.1992 101.979 19.1992C101.635 19.2135 101.291 19.2135 100.947 19.1992C100.618 19.1706 100.288 19.1419 99.9591 19.1133C99.9734 20.2448 99.9519 21.3763 99.8946 22.5078C99.8516 23.6393 99.7371 24.7637 99.5509 25.8809C99.5222 26.1243 99.3933 26.3034 99.1641 26.418C98.935 26.5326 98.713 26.554 98.4981 26.4824C98.2546 26.4108 98.0828 26.2747 97.9825 26.0742C97.8966 25.888 97.8751 25.6732 97.918 25.4297C98.0899 24.3411 98.183 23.2526 98.1973 22.1641C98.226 21.0755 98.226 19.9798 98.1973 18.877C97.6531 18.791 97.1016 18.7051 96.543 18.6191C95.9845 18.5189 95.433 18.4329 94.8887 18.3613C94.6453 18.3327 94.4734 18.2038 94.3731 17.9746C94.2585 17.7311 94.2299 17.5091 94.2872 17.3086C94.3588 17.0651 94.4949 16.9004 94.6954 16.8145C94.8959 16.7142 95.1108 16.6784 95.3399 16.707C95.8126 16.7786 96.2852 16.8574 96.7579 16.9434C97.2305 17.015 97.7104 17.0866 98.1973 17.1582C98.183 17.0866 98.1759 16.9792 98.1759 16.8359C98.1759 15.5469 98.1687 14.2721 98.1544 13.0117C98.1544 11.7513 98.2188 10.4766 98.3477 9.1875C98.3764 8.95833 98.4623 8.75781 98.6055 8.58594C98.7631 8.41406 98.9636 8.32812 99.2071 8.32812C99.422 8.32812 99.6225 8.41406 99.8087 8.58594C100.009 8.75781 100.095 8.95833 100.066 9.1875C99.9233 10.5625 99.8516 11.9303 99.8516 13.291C99.866 14.6374 99.8874 16.0052 99.9161 17.3945C100.26 17.4232 100.604 17.4518 100.947 17.4805C101.291 17.4948 101.635 17.502 101.979 17.502ZM104.921 24.7852C105.036 24.0977 105.165 23.4245 105.308 22.7656C105.465 22.0924 105.58 21.4121 105.652 20.7246C105.709 20.0514 105.716 19.3926 105.673 18.748C105.644 18.0892 105.687 17.4232 105.802 16.75C105.831 16.5208 105.96 16.349 106.189 16.2344C106.432 16.1198 106.654 16.0911 106.855 16.1484C107.098 16.2201 107.263 16.3561 107.349 16.5566C107.449 16.7572 107.485 16.972 107.456 17.2012C107.399 17.5306 107.37 17.8672 107.37 18.2109C107.385 18.5547 107.399 18.8984 107.413 19.2422C107.413 19.901 107.37 20.5599 107.284 21.2188C107.198 21.9062 107.084 22.5794 106.941 23.2383C106.812 23.8971 106.69 24.5632 106.575 25.2363C106.532 25.4655 106.396 25.6374 106.167 25.752C105.938 25.8665 105.723 25.8952 105.523 25.8379C105.279 25.7663 105.107 25.6302 105.007 25.4297C104.907 25.2292 104.878 25.0143 104.921 24.7852ZM105.952 14.9023C105.852 14.8737 105.752 14.8307 105.652 14.7734C105.551 14.7018 105.48 14.6159 105.437 14.5156C105.394 14.401 105.358 14.3008 105.329 14.2148C105.301 14.1289 105.286 14.0286 105.286 13.9141C105.286 13.7852 105.308 13.6562 105.351 13.5273C105.408 13.2695 105.523 13.0833 105.695 12.9688C105.752 12.8828 105.831 12.8184 105.931 12.7754C106.088 12.6751 106.267 12.625 106.468 12.625C106.668 12.6107 106.848 12.6608 107.005 12.7754C107.077 12.8327 107.148 12.8971 107.22 12.9688C107.292 13.026 107.349 13.1048 107.392 13.2051C107.42 13.2767 107.449 13.3555 107.478 13.4414C107.521 13.5273 107.535 13.6133 107.521 13.6992C107.506 13.7995 107.492 13.8926 107.478 13.9785C107.463 14.0645 107.428 14.1432 107.37 14.2148C107.299 14.3151 107.241 14.3867 107.198 14.4297C107.155 14.4727 107.084 14.5299 106.984 14.6016C106.926 14.6589 106.84 14.7018 106.726 14.7305C106.425 14.9023 106.167 14.9596 105.952 14.9023ZM111.516 20.2305C111.144 19.9583 110.879 19.6217 110.721 19.2207C110.563 18.8053 110.556 18.3685 110.7 17.9102C110.843 17.4948 111.065 17.1224 111.366 16.793C111.666 16.4635 112.01 16.1986 112.397 15.998C112.826 15.7689 113.285 15.5898 113.772 15.4609C114.259 15.332 114.753 15.2604 115.254 15.2461C115.756 15.2318 116.25 15.2819 116.737 15.3965C117.238 15.4967 117.711 15.6615 118.155 15.8906C118.398 16.0195 118.534 16.1914 118.563 16.4062C118.591 16.6211 118.548 16.8216 118.434 17.0078C118.334 17.194 118.176 17.3301 117.961 17.416C117.746 17.502 117.517 17.4805 117.274 17.3516C116.93 17.1654 116.543 17.0436 116.114 16.9863C115.684 16.929 115.247 16.929 114.803 16.9863C114.373 17.0293 113.965 17.1367 113.578 17.3086C113.192 17.4805 112.869 17.7025 112.612 17.9746C112.54 18.0462 112.49 18.0964 112.461 18.125C112.447 18.1536 112.418 18.2181 112.375 18.3184L112.332 18.5547C112.375 18.6836 112.411 18.7624 112.44 18.791C112.726 18.9772 113.02 19.099 113.321 19.1562C113.636 19.1992 113.951 19.2279 114.266 19.2422C114.71 19.2708 115.161 19.2995 115.619 19.3281C116.092 19.3424 116.543 19.3997 116.973 19.5C117.417 19.6003 117.825 19.765 118.198 19.9941C118.57 20.2233 118.885 20.5599 119.143 21.0039C119.429 21.5052 119.558 22.028 119.53 22.5723C119.515 23.1022 119.308 23.582 118.907 24.0117C118.506 24.4414 118.04 24.7422 117.51 24.9141C116.98 25.0716 116.443 25.1862 115.899 25.2578C115.412 25.3151 114.903 25.3294 114.373 25.3008C113.858 25.2721 113.356 25.1862 112.869 25.043C112.397 24.9141 111.953 24.7135 111.537 24.4414C111.122 24.1549 110.778 23.7826 110.506 23.3242C110.377 23.0951 110.356 22.8802 110.442 22.6797C110.528 22.4648 110.657 22.3073 110.828 22.207C111.015 22.0924 111.215 22.0495 111.43 22.0781C111.659 22.1068 111.845 22.2357 111.989 22.4648C112.189 22.7943 112.468 23.0449 112.826 23.2168C113.185 23.3887 113.571 23.5104 113.987 23.582C114.416 23.6393 114.846 23.6536 115.276 23.625C115.705 23.582 116.092 23.5247 116.436 23.4531C116.622 23.4102 116.808 23.3529 116.994 23.2812C117.195 23.1953 117.36 23.0951 117.489 22.9805C117.632 22.8659 117.732 22.737 117.789 22.5938C117.847 22.4362 117.84 22.2643 117.768 22.0781C117.625 21.7201 117.381 21.4622 117.037 21.3047C116.708 21.1471 116.357 21.054 115.985 21.0254C115.612 20.9967 115.233 20.9824 114.846 20.9824C114.459 20.9824 114.073 20.9681 113.686 20.9395C113.299 20.8965 112.92 20.8249 112.547 20.7246C112.175 20.6243 111.831 20.4596 111.516 20.2305ZM9.10938 43.332C9.3099 43.4466 9.44596 43.6185 9.51758 43.8477C9.58919 44.0768 9.55339 44.2917 9.41016 44.4922C9.05208 45.0078 8.77995 45.5736 8.59375 46.1895C8.42188 46.8053 8.22135 47.4069 7.99219 47.9941C7.7487 48.6243 7.47656 49.2331 7.17578 49.8203C6.88932 50.4076 6.58138 51.002 6.25195 51.6035C6.22331 51.6751 6.1875 51.7396 6.14453 51.7969C6.11589 51.8398 6.08724 51.8971 6.05859 51.9688C6.11589 52.1979 6.08008 52.4056 5.95117 52.5918C5.83659 52.7637 5.67904 52.8854 5.47852 52.957C4.89128 53.9596 4.29688 54.9479 3.69531 55.9219C3.10807 56.9102 2.52083 57.9056 1.93359 58.9082C1.79036 59.1517 1.60417 59.2878 1.375 59.3164C1.16016 59.3451 0.959635 59.3021 0.773438 59.1875C0.58724 59.0872 0.451172 58.9297 0.365234 58.7148C0.279297 58.5143 0.307943 58.2923 0.451172 58.0488C1.05273 57.0176 1.66146 55.9935 2.27734 54.9766C2.89323 53.974 3.50195 52.957 4.10352 51.9258C3.45898 50.7656 2.8431 49.5983 2.25586 48.4238C1.66862 47.235 1.06706 46.0534 0.451172 44.8789C0.322266 44.6354 0.300781 44.4134 0.386719 44.2129C0.486979 43.998 0.623047 43.8405 0.794922 43.7402C0.98112 43.6257 1.18164 43.5827 1.39648 43.6113C1.62565 43.64 1.80469 43.776 1.93359 44.0195C2.46354 45.0508 2.98633 46.082 3.50195 47.1133C4.01758 48.1302 4.54753 49.1471 5.0918 50.1641C5.62174 49.1901 6.0944 48.166 6.50977 47.0918C6.72461 46.5046 6.92513 45.9102 7.11133 45.3086C7.31185 44.6927 7.59115 44.1341 7.94922 43.6328C8.07812 43.4323 8.25 43.3034 8.46484 43.2461C8.67969 43.1745 8.89453 43.2031 9.10938 43.332ZM24.426 43.0957C24.8843 43.0384 25.3642 43.0241 25.8655 43.0527C26.3668 43.0671 26.8466 43.153 27.3049 43.3105C27.7633 43.4538 28.1786 43.6758 28.551 43.9766C28.9234 44.2773 29.2099 44.6712 29.4104 45.1582C29.5536 45.502 29.6252 45.8529 29.6252 46.2109C29.6396 46.5547 29.5894 46.8913 29.4748 47.2207C29.3746 47.5358 29.217 47.8438 29.0022 48.1445C28.8017 48.431 28.5653 48.696 28.2932 48.9395C27.706 49.4694 27.0614 49.9206 26.3596 50.293C25.6578 50.6654 24.9202 50.9518 24.1467 51.1523C23.8173 51.2383 23.4735 51.3171 23.1155 51.3887C22.7717 51.446 22.4208 51.4746 22.0627 51.4746C21.7047 51.4746 21.3538 51.4388 21.01 51.3672C20.6663 51.2812 20.344 51.1452 20.0432 50.959C19.8284 50.8301 19.6995 50.6582 19.6565 50.4434C19.5705 50.1999 19.4774 49.9707 19.3772 49.7559C19.2769 49.541 19.1767 49.319 19.0764 49.0898C18.9905 48.8607 18.9189 48.6315 18.8616 48.4023C18.8043 48.1732 18.7756 47.9368 18.7756 47.6934C18.7756 47.2064 18.8759 46.748 19.0764 46.3184C19.2913 45.8743 19.5777 45.4876 19.9358 45.1582C20.5373 44.5853 21.232 44.127 22.0198 43.7832C22.8075 43.4395 23.6096 43.2103 24.426 43.0957ZM26.8538 44.9434C26.467 44.8001 26.0517 44.7285 25.6077 44.7285C25.135 44.7142 24.6623 44.7643 24.1897 44.8789C23.717 44.9792 23.2659 45.1224 22.8362 45.3086C22.4351 45.4661 22.0198 45.6882 21.5901 45.9746C21.1747 46.2467 20.8668 46.5833 20.6663 46.9844C20.5517 47.1992 20.4944 47.4212 20.4944 47.6504C20.5087 47.8652 20.5445 48.0872 20.6018 48.3164C20.6734 48.5312 20.7593 48.7533 20.8596 48.9824C20.9742 49.1973 21.0745 49.4121 21.1604 49.627C21.3896 49.6842 21.5328 49.7129 21.5901 49.7129C21.6187 49.7272 21.6545 49.7344 21.6975 49.7344C21.7405 49.7344 21.7763 49.7344 21.8049 49.7344C22.0914 49.763 22.3492 49.7559 22.5784 49.7129C22.7359 49.7129 22.9364 49.6842 23.1799 49.627C23.5523 49.5553 23.9104 49.4622 24.2541 49.3477C24.5979 49.2188 24.913 49.0827 25.1995 48.9395C25.5289 48.7819 25.8511 48.61 26.1663 48.4238C26.4814 48.2376 26.7463 48.0443 26.9612 47.8438C27.1044 47.7148 27.2405 47.5788 27.3694 47.4355C27.441 47.3639 27.4911 47.3066 27.5198 47.2637C27.5914 47.1634 27.6487 47.0918 27.6916 47.0488C27.7346 46.9915 27.7704 46.9271 27.7991 46.8555C27.8564 46.7552 27.885 46.6764 27.885 46.6191C27.8993 46.5905 27.9065 46.5547 27.9065 46.5117C27.9208 46.4688 27.9351 46.4329 27.9495 46.4043V46.168C27.9351 46.1107 27.928 46.0677 27.928 46.0391C27.928 46.0104 27.9208 45.9818 27.9065 45.9531C27.8635 45.8529 27.8205 45.7812 27.7776 45.7383C27.7489 45.681 27.7131 45.6237 27.6702 45.5664C27.6845 45.5807 27.663 45.5592 27.6057 45.502C27.5627 45.4447 27.5341 45.4089 27.5198 45.3945L27.3479 45.2227C27.2763 45.1797 27.1975 45.1296 27.1116 45.0723C27.0256 45.015 26.9397 44.972 26.8538 44.9434ZM31.9662 50.9375C31.9662 50.3216 32.0091 49.6986 32.0951 49.0684C32.1953 48.3092 32.2956 47.5573 32.3959 46.8125C32.4961 46.0534 32.5391 45.2871 32.5248 44.5137C32.5248 44.2415 32.6107 44.0339 32.7826 43.8906C32.9545 43.7474 33.1478 43.6758 33.3627 43.6758C33.5775 43.6758 33.778 43.7474 33.9642 43.8906C34.1504 44.0339 34.2435 44.2415 34.2435 44.5137C34.8021 44.4707 35.3321 44.4492 35.8334 44.4492C36.4063 44.4635 36.8933 44.6283 37.2943 44.9434C37.6953 45.2585 37.9961 45.681 38.1966 46.2109C38.3685 46.6979 38.4688 47.1992 38.4974 47.7148C38.5261 48.2305 38.5476 48.7461 38.5619 49.2617C38.5762 49.9922 38.5977 50.7227 38.6263 51.4531C38.655 52.1693 38.6693 52.8926 38.6693 53.623C38.6693 53.9095 38.5762 54.1172 38.39 54.2461C38.2181 54.3893 38.0248 54.4609 37.8099 54.4609C37.6094 54.4609 37.416 54.3893 37.2298 54.2461C37.058 54.1172 36.972 53.9095 36.972 53.623C36.972 52.9355 36.9577 52.2624 36.9291 51.6035C36.9147 50.9447 36.8933 50.2715 36.8646 49.584C36.836 49.2116 36.8216 48.832 36.8216 48.4453C36.836 48.0443 36.8073 47.679 36.7357 47.3496C36.6927 47.1491 36.6498 46.9772 36.6068 46.834C36.5638 46.6764 36.4851 46.526 36.3705 46.3828C36.3418 46.3255 36.2774 46.2754 36.1771 46.2324C36.0912 46.1895 36.0124 46.168 35.9408 46.168C35.7259 46.168 35.5254 46.1823 35.3392 46.2109C35.153 46.2396 34.9597 46.2826 34.7591 46.3398C34.6732 46.3685 34.5873 46.3971 34.5013 46.4258C34.4154 46.4544 34.3366 46.4902 34.265 46.5332C34.1218 47.0488 34.0143 47.543 33.9427 48.0156C33.8854 48.474 33.8282 48.9395 33.7709 49.4121C33.7279 49.7559 33.6992 50.1068 33.6849 50.4648C33.6849 50.8086 33.6706 51.1523 33.642 51.4961C33.6276 51.8398 33.5847 52.1836 33.513 52.5273C33.4558 52.8711 33.3483 53.2005 33.1908 53.5156C33.0619 53.7591 32.89 53.8952 32.6752 53.9238C32.4603 53.9668 32.2598 53.931 32.0736 53.8164C31.9017 53.7161 31.7657 53.5586 31.6654 53.3438C31.5795 53.1289 31.5938 52.8997 31.7084 52.6562C31.8373 52.3984 31.9089 52.1191 31.9232 51.8184C31.9375 51.5176 31.9518 51.224 31.9662 50.9375ZM42.9653 36.1348C43.2231 36.1348 43.4236 36.2207 43.5669 36.3926C43.7101 36.5645 43.796 36.765 43.8247 36.9941C43.9679 38.3548 44.0467 39.7155 44.061 41.0762C44.0753 42.4368 44.0539 43.7975 43.9966 45.1582C43.9536 46.5189 43.882 47.8796 43.7817 49.2402C43.6815 50.6009 43.5812 51.9544 43.4809 53.3008C43.4523 53.5443 43.3592 53.7448 43.2016 53.9023C43.0584 54.0742 42.8651 54.1602 42.6216 54.1602C42.4067 54.1602 42.2062 54.0742 42.02 53.9023C41.8338 53.7448 41.7479 53.5443 41.7622 53.3008C41.8624 51.9544 41.9627 50.6009 42.063 49.2402C42.1776 47.8796 42.2563 46.5189 42.2993 45.1582C42.3566 43.7975 42.3781 42.4368 42.3638 41.0762C42.3494 39.7155 42.2707 38.3548 42.1274 36.9941C42.0988 36.765 42.1776 36.5645 42.3638 36.3926C42.5499 36.2207 42.7505 36.1348 42.9653 36.1348ZM47.1754 52.7852C47.29 52.0977 47.4189 51.4245 47.5621 50.7656C47.7197 50.0924 47.8342 49.4121 47.9059 48.7246C47.9632 48.0514 47.9703 47.3926 47.9273 46.748C47.8987 46.0892 47.9417 45.4232 48.0563 44.75C48.0849 44.5208 48.2138 44.349 48.443 44.2344C48.6865 44.1198 48.9085 44.0911 49.109 44.1484C49.3525 44.2201 49.5172 44.3561 49.6031 44.5566C49.7034 44.7572 49.7392 44.972 49.7105 45.2012C49.6533 45.5306 49.6246 45.8672 49.6246 46.2109C49.6389 46.5547 49.6533 46.8984 49.6676 47.2422C49.6676 47.901 49.6246 48.5599 49.5387 49.2188C49.4527 49.9062 49.3382 50.5794 49.1949 51.2383C49.066 51.8971 48.9443 52.5632 48.8297 53.2363C48.7867 53.4655 48.6507 53.6374 48.4215 53.752C48.1923 53.8665 47.9775 53.8952 47.777 53.8379C47.5335 53.7663 47.3616 53.6302 47.2613 53.4297C47.1611 53.2292 47.1324 53.0143 47.1754 52.7852ZM48.2066 42.9023C48.1064 42.8737 48.0061 42.8307 47.9059 42.7734C47.8056 42.7018 47.734 42.6159 47.691 42.5156C47.648 42.401 47.6122 42.3008 47.5836 42.2148C47.5549 42.1289 47.5406 42.0286 47.5406 41.9141C47.5406 41.7852 47.5621 41.6562 47.6051 41.5273C47.6624 41.2695 47.777 41.0833 47.9488 40.9688C48.0061 40.8828 48.0849 40.8184 48.1852 40.7754C48.3427 40.6751 48.5217 40.625 48.7223 40.625C48.9228 40.6107 49.1018 40.6608 49.2594 40.7754C49.331 40.8327 49.4026 40.8971 49.4742 40.9688C49.5458 41.026 49.6031 41.1048 49.6461 41.2051C49.6747 41.2767 49.7034 41.3555 49.732 41.4414C49.775 41.5273 49.7893 41.6133 49.775 41.6992C49.7607 41.7995 49.7464 41.8926 49.732 41.9785C49.7177 42.0645 49.6819 42.1432 49.6246 42.2148C49.553 42.3151 49.4957 42.3867 49.4527 42.4297C49.4098 42.4727 49.3382 42.5299 49.2379 42.6016C49.1806 42.6589 49.0947 42.7018 48.9801 42.7305C48.6793 42.9023 48.4215 42.9596 48.2066 42.9023ZM53.1042 50.9375C53.1042 50.3216 53.1472 49.6986 53.2331 49.0684C53.3334 48.3092 53.4336 47.5573 53.5339 46.8125C53.6342 46.0534 53.6771 45.2871 53.6628 44.5137C53.6628 44.2415 53.7487 44.0339 53.9206 43.8906C54.0925 43.7474 54.2859 43.6758 54.5007 43.6758C54.7155 43.6758 54.9161 43.7474 55.1023 43.8906C55.2885 44.0339 55.3816 44.2415 55.3816 44.5137C55.9402 44.4707 56.4701 44.4492 56.9714 44.4492C57.5443 44.4635 58.0313 44.6283 58.4323 44.9434C58.8334 45.2585 59.1342 45.681 59.3347 46.2109C59.5066 46.6979 59.6068 47.1992 59.6355 47.7148C59.6641 48.2305 59.6856 48.7461 59.6999 49.2617C59.7142 49.9922 59.7357 50.7227 59.7644 51.4531C59.793 52.1693 59.8073 52.8926 59.8073 53.623C59.8073 53.9095 59.7142 54.1172 59.528 54.2461C59.3562 54.3893 59.1628 54.4609 58.948 54.4609C58.7474 54.4609 58.5541 54.3893 58.3679 54.2461C58.196 54.1172 58.1101 53.9095 58.1101 53.623C58.1101 52.9355 58.0958 52.2624 58.0671 51.6035C58.0528 50.9447 58.0313 50.2715 58.0027 49.584C57.974 49.2116 57.9597 48.832 57.9597 48.4453C57.974 48.0443 57.9454 47.679 57.8737 47.3496C57.8308 47.1491 57.7878 46.9772 57.7448 46.834C57.7019 46.6764 57.6231 46.526 57.5085 46.3828C57.4799 46.3255 57.4154 46.2754 57.3152 46.2324C57.2292 46.1895 57.1504 46.168 57.0788 46.168C56.864 46.168 56.6635 46.1823 56.4773 46.2109C56.2911 46.2396 56.0977 46.2826 55.8972 46.3398C55.8112 46.3685 55.7253 46.3971 55.6394 46.4258C55.5534 46.4544 55.4747 46.4902 55.403 46.5332C55.2598 47.0488 55.1524 47.543 55.0808 48.0156C55.0235 48.474 54.9662 48.9395 54.9089 49.4121C54.8659 49.7559 54.8373 50.1068 54.823 50.4648C54.823 50.8086 54.8086 51.1523 54.78 51.4961C54.7657 51.8398 54.7227 52.1836 54.6511 52.5273C54.5938 52.8711 54.4864 53.2005 54.3288 53.5156C54.1999 53.7591 54.028 53.8952 53.8132 53.9238C53.5984 53.9668 53.3978 53.931 53.2116 53.8164C53.0398 53.7161 52.9037 53.5586 52.8034 53.3438C52.7175 53.1289 52.7318 52.8997 52.8464 52.6562C52.9753 52.3984 53.0469 52.1191 53.0612 51.8184C53.0756 51.5176 53.0899 51.224 53.1042 50.9375ZM63.4159 44.6641C63.688 44.2917 64.0103 43.9622 64.3827 43.6758C64.7694 43.3893 65.1776 43.1673 65.6073 43.0098C66.037 42.8379 66.481 42.752 66.9393 42.752C67.3976 42.7376 67.856 42.8236 68.3143 43.0098C68.7583 43.1816 69.1593 43.418 69.5174 43.7188C69.8755 44.0052 70.1548 44.3776 70.3553 44.8359C70.5129 45.1797 70.606 45.5521 70.6346 45.9531C70.6633 46.3542 70.5558 46.7194 70.3123 47.0488C70.0975 47.3496 69.8325 47.5788 69.5174 47.7363C69.2166 47.8939 68.8872 48.0085 68.5291 48.0801C68.1854 48.1517 67.8273 48.1875 67.4549 48.1875C67.0968 48.1875 66.7531 48.1803 66.4237 48.166C66.0513 48.1517 65.6789 48.123 65.3065 48.0801C64.9484 48.0371 64.5832 47.9941 64.2108 47.9512C64.3254 48.5957 64.5545 49.1686 64.8983 49.6699C65.242 50.1712 65.7075 50.5508 66.2948 50.8086C66.4523 50.8659 66.5741 50.9089 66.66 50.9375C66.703 50.9518 66.7388 50.9661 66.7674 50.9805C66.8104 50.9805 66.8534 50.9805 66.8963 50.9805C67.0109 50.9948 67.104 51.0091 67.1756 51.0234C67.2616 51.0234 67.3403 51.0163 67.412 51.002C67.5122 50.9876 67.5767 50.9805 67.6053 50.9805C67.6483 50.9661 67.6912 50.9518 67.7342 50.9375C67.8918 50.8945 68.0278 50.8444 68.1424 50.7871C68.2713 50.7298 68.4217 50.6367 68.5936 50.5078C68.6795 50.4362 68.7941 50.3288 68.9373 50.1855C69.0806 50.0423 69.2023 49.9134 69.3026 49.7988C69.4458 49.5983 69.6177 49.4622 69.8182 49.3906C70.033 49.319 70.2479 49.3477 70.4627 49.4766C70.6489 49.5911 70.7778 49.7702 70.8495 50.0137C70.9354 50.2428 70.9067 50.4577 70.7635 50.6582C70.3482 51.2168 69.854 51.6966 69.2811 52.0977C68.7225 52.4844 68.078 52.6921 67.3475 52.7207C66.7603 52.7493 66.1945 52.6491 65.6502 52.4199C65.106 52.1764 64.6261 51.8542 64.2108 51.4531C63.6952 50.9518 63.287 50.3717 62.9862 49.7129C62.6854 49.054 62.5207 48.3809 62.492 47.6934C62.3631 47.5931 62.2629 47.4714 62.1912 47.3281C62.134 47.1706 62.1125 47.013 62.1268 46.8555C62.1554 46.6979 62.2127 46.5547 62.2987 46.4258C62.3846 46.2826 62.5135 46.1895 62.6854 46.1465C62.8429 45.6165 63.0864 45.1224 63.4159 44.6641ZM68.5721 45.1797C68.4146 44.9792 68.1711 44.8001 67.8416 44.6426C67.5695 44.528 67.2472 44.4707 66.8748 44.4707C66.5168 44.4707 66.2088 44.5352 65.951 44.6641C65.6216 44.8216 65.328 45.0436 65.0702 45.3301C64.8123 45.6022 64.6047 45.9102 64.4471 46.2539C64.7909 46.2969 65.1346 46.3398 65.4784 46.3828C65.8221 46.4258 66.1659 46.4544 66.5096 46.4688C66.6958 46.4688 66.882 46.4688 67.0682 46.4688C67.2544 46.4688 67.4406 46.4616 67.6268 46.4473C67.6841 46.4473 67.7342 46.4473 67.7772 46.4473C67.8345 46.4329 67.8918 46.4258 67.9491 46.4258C68.078 46.3971 68.1711 46.3828 68.2284 46.3828C68.3 46.3685 68.3716 46.347 68.4432 46.3184C68.5005 46.304 68.5721 46.2826 68.658 46.2539C68.7297 46.2253 68.7726 46.2038 68.787 46.1895C68.8013 46.1751 68.8228 46.1608 68.8514 46.1465L68.9159 45.8887C68.8872 45.8314 68.8657 45.7812 68.8514 45.7383C68.8514 45.681 68.8371 45.6309 68.8084 45.5879C68.7941 45.5449 68.7583 45.4805 68.701 45.3945C68.658 45.3086 68.6151 45.237 68.5721 45.1797ZM74.2216 51.4961C74.4078 51.6107 74.5511 51.7826 74.6513 52.0117C74.7516 52.2409 74.7659 52.4557 74.6943 52.6562C74.637 52.8711 74.5009 53.0501 74.2861 53.1934C74.1285 53.3652 73.928 53.444 73.6845 53.4297C73.441 53.4297 73.2405 53.3509 73.083 53.1934C72.8681 53.0358 72.7321 52.8926 72.6748 52.7637C72.5602 52.5632 72.5244 52.3626 72.5673 52.1621C72.6246 51.9616 72.7321 51.7897 72.8896 51.6465C72.9326 51.6178 72.9684 51.5892 72.997 51.5605C73.04 51.5176 73.0901 51.4818 73.1474 51.4531C73.2763 51.3958 73.3479 51.3672 73.3623 51.3672C73.3909 51.3672 73.4697 51.3529 73.5986 51.3242C73.6416 51.3242 73.6917 51.3314 73.749 51.3457C73.8063 51.3457 73.8492 51.3529 73.8779 51.3672C73.9925 51.3815 74.1071 51.4245 74.2216 51.4961ZM74.0498 37.6387C74.0498 37.3665 74.1357 37.1589 74.3076 37.0156C74.4938 36.8724 74.6871 36.8008 74.8877 36.8008C75.1025 36.8008 75.2959 36.8724 75.4677 37.0156C75.6539 37.1589 75.747 37.3665 75.747 37.6387C75.747 38.584 75.7542 39.5365 75.7685 40.4961C75.7972 41.4414 75.7972 42.3867 75.7685 43.332C75.7542 44.2773 75.6969 45.2227 75.5966 46.168C75.5107 47.1133 75.3532 48.0514 75.124 48.9824C75.0524 49.2546 74.9163 49.4336 74.7158 49.5195C74.5153 49.6055 74.3076 49.6198 74.0927 49.5625C73.8922 49.5052 73.7203 49.3906 73.5771 49.2188C73.4339 49.0326 73.3981 48.8034 73.4697 48.5312C73.6845 47.6432 73.8349 46.748 73.9209 45.8457C74.0068 44.929 74.0569 44.0195 74.0713 43.1172C74.0999 42.2005 74.0999 41.2839 74.0713 40.3672C74.0569 39.4505 74.0498 38.541 74.0498 37.6387Z" fill="black"/>
</svg>
