<svg width="100%" height="85.24590163934425%" viewBox="0 0 61 52" fill="none" xmlns="http://www.w3.org/2000/svg">
<path d="M5 33L25.5 36.5H34.5L54 33V49H5V33Z" fill="#E0FF00"/>
<path d="M3.23448 33.1034V49.0435C3.35805 49.5377 4.34658 50.5263 7.31217 50.5263C10.2778 50.5263 39.4394 50.5263 53.6495 50.5263C54.5145 50.6498 56.3186 50.3038 56.6151 47.9314C56.9117 45.5589 56.7387 37.5875 56.6151 33.6334M26.5885 36.8104C21.893 36.069 11.3157 34.512 6.57077 34.2155C1.82583 33.9189 0.886724 31.6206 1.01029 30.5085C1.01029 25.813 1.01029 15.5323 1.01029 11.9736C1.01029 8.41488 2.49309 7.77234 3.23448 7.8959H56.6151C62.1756 7.15454 59.21 19.7582 59.21 22.7238C59.21 25.6894 60.3221 31.9913 58.4686 33.1034C56.9858 33.9931 41.2929 35.9454 33.6318 36.8104" stroke="black" stroke-width="2"/>
<path d="M26.5885 40.8878V31.6203C26.5885 30.8789 27.3299 30.8789 30.2955 30.8789C32.668 30.8789 33.2611 31.8674 33.2611 32.3617V41.2585C33.2611 42.7413 32.149 43.112 29.1834 43.112C26.8109 43.112 26.4649 41.6292 26.5885 40.8878Z" stroke="black" stroke-width="2"/>
<path d="M20.6573 7.89567C20.5337 5.54791 22.2142 0.92653 29.9248 1.22309C37.6353 1.51965 38.5744 5.79504 38.0802 7.89567" stroke="black" stroke-width="2"/>
</svg>
