<svg width="108" height="21" viewBox="0 0 108 21" fill="none" xmlns="http://www.w3.org/2000/svg">
<path d="M10.0273 0.644531L9.36328 3.75977H6.77539L3.28906 20.1953H0.0371094L3.52344 3.75977H0.935547L1.59961 0.644531H10.0273ZM17.0047 16.2793C16.4057 19.0918 14.7 20.5013 11.8875 20.5078C9.5763 20.5078 8.4207 19.5508 8.4207 17.6367C8.4207 17.2266 8.47279 16.7741 8.57695 16.2793L11.8973 0.644531H15.1492L11.8289 16.2793C11.7964 16.4225 11.7801 16.5527 11.7801 16.6699C11.7801 17.1452 12.0372 17.3828 12.5516 17.3828C13.1961 17.3828 13.5965 17.015 13.7527 16.2793L17.073 0.644531H20.325L17.0047 16.2793ZM30.6227 0.644531L29.9586 3.75977H27.3707L23.8844 20.1953H20.6324L24.1187 3.75977H21.5309L22.1949 0.644531H30.6227ZM37.5023 16.2793C36.9034 19.0918 35.1977 20.5013 32.3852 20.5078C30.074 20.5078 28.9184 19.5508 28.9184 17.6367C28.9184 17.2266 28.9704 16.7741 29.0746 16.2793L31.5648 4.56055C32.1638 1.74805 33.8663 0.341797 36.6723 0.341797C38.99 0.341797 40.1488 1.29883 40.1488 3.21289C40.1488 3.61654 40.0967 4.06576 39.9926 4.56055L37.5023 16.2793ZM36.7406 4.56055C36.7732 4.41732 36.7895 4.28711 36.7895 4.16992C36.7895 3.70117 36.5323 3.46354 36.018 3.45703H35.9984C35.3669 3.45703 34.973 3.82487 34.8168 4.56055L32.3266 16.2793C32.294 16.4225 32.2777 16.5527 32.2777 16.6699C32.2777 17.1452 32.5349 17.3828 33.0492 17.3828C33.6938 17.3828 34.0941 17.015 34.2504 16.2793L36.7406 4.56055ZM43.3762 0.644531H47.6437C49.7727 0.651042 50.8371 1.58529 50.8371 3.44727C50.8371 3.87695 50.7818 4.35221 50.6711 4.87305L50.0656 7.75391C49.688 9.52474 48.7342 10.6706 47.2043 11.1914L48.425 20.1953H44.8801L44.4406 11.7871H44.2648L42.4777 20.1953H39.2258L43.3762 0.644531ZM45.9641 3.75977L44.8898 8.85742H45.2805C45.632 8.85742 45.8632 8.83789 45.9738 8.79883C46.4165 8.63607 46.6965 8.28776 46.8137 7.75391L47.4191 4.87305C47.4517 4.72982 47.468 4.59961 47.468 4.48242C47.468 4.00065 47.2108 3.75977 46.6965 3.75977H45.9641ZM53.3613 4.3457C53.9082 1.77409 55.4512 0.488281 57.9902 0.488281C60.0801 0.488281 61.125 1.35742 61.125 3.0957C61.125 3.47331 61.0762 3.88997 60.9785 4.3457L60.4707 6.71875H58.2148L58.7227 4.3457C58.7617 4.15039 58.7812 3.97135 58.7812 3.80859C58.7812 3.07943 58.3613 2.71159 57.5215 2.70508H57.502C56.4733 2.70508 55.8451 3.25195 55.6172 4.3457L55.2266 6.15234C55.2005 6.26302 55.1875 6.38021 55.1875 6.50391C55.1875 7.40885 55.8939 8.45378 57.3066 9.63867C58.459 10.6152 59.0352 11.7383 59.0352 13.0078C59.0352 13.3268 58.9993 13.6523 58.9277 13.9844L58.3906 16.4941C57.8438 19.0723 56.304 20.3613 53.7715 20.3613C51.6751 20.3548 50.627 19.4792 50.627 17.7344C50.627 17.3633 50.6758 16.9499 50.7734 16.4941L51.2812 14.1211H53.5371L53.0293 16.4941C52.9902 16.6895 52.9707 16.8685 52.9707 17.0312C52.9707 17.7669 53.3971 18.1348 54.25 18.1348C55.2786 18.1348 55.9069 17.5879 56.1348 16.4941L56.623 14.2285C56.6491 14.0983 56.6621 13.9681 56.6621 13.8379C56.6621 12.8743 55.9655 11.8034 54.5723 10.625C53.4264 9.65495 52.8535 8.52214 52.8535 7.22656C52.8535 6.90104 52.8893 6.5625 52.9609 6.21094L53.3613 4.3457ZM68.3563 16.4941C67.8094 19.0658 66.2664 20.3548 63.7273 20.3613C61.6375 20.3613 60.5926 19.4889 60.5926 17.7441C60.5926 17.3665 60.6414 16.9499 60.7391 16.4941L63.327 4.3457C63.8738 1.77409 65.4168 0.488281 67.9559 0.488281C70.0457 0.488281 71.0906 1.35742 71.0906 3.0957C71.0906 3.47331 71.0418 3.88997 70.9441 4.3457L70.4363 6.71875H68.1805L68.6883 4.3457C68.7273 4.15039 68.7469 3.97135 68.7469 3.80859C68.7469 3.07943 68.327 2.71159 67.4871 2.70508H67.4676C66.4389 2.70508 65.8107 3.25195 65.5828 4.3457L62.9949 16.4941C62.9559 16.6895 62.9363 16.8685 62.9363 17.0312C62.9363 17.7669 63.3595 18.1348 64.2059 18.1348C65.241 18.1348 65.8725 17.5879 66.1004 16.4941L66.6082 14.1211H68.8641L68.3563 16.4941ZM74.1422 0.800781H76.398L74.5914 9.30664H77.6969L79.5035 0.800781H81.7594L77.6676 20.0391H75.4117L77.2184 11.5332H74.1129L72.3063 20.0391H70.0504L74.1422 0.800781ZM88.5805 16.4941C88.0336 19.0658 86.4906 20.3548 83.9516 20.3613C81.8617 20.3613 80.8168 19.4889 80.8168 17.7441C80.8168 17.3665 80.8656 16.9499 80.9633 16.4941L83.5512 4.3457C84.098 1.77409 85.641 0.488281 88.1801 0.488281C90.2699 0.488281 91.3148 1.35742 91.3148 3.0957C91.3148 3.47331 91.266 3.88997 91.1684 4.3457L88.5805 16.4941ZM88.9125 4.3457C88.9516 4.15039 88.9711 3.97135 88.9711 3.80859C88.9711 3.07943 88.5512 2.71159 87.7113 2.70508H87.6918C86.6631 2.70508 86.0349 3.25195 85.807 4.3457L83.2191 16.4941C83.1801 16.6895 83.1605 16.8685 83.1605 17.0312C83.1605 17.7669 83.5837 18.1348 84.4301 18.1348C85.4652 18.1348 86.0967 17.5879 86.3246 16.4941L88.9125 4.3457ZM98.5461 16.4941C97.9992 19.0658 96.4563 20.3548 93.9172 20.3613C91.8273 20.3613 90.7824 19.4889 90.7824 17.7441C90.7824 17.3665 90.8313 16.9499 90.9289 16.4941L93.5168 4.3457C94.0637 1.77409 95.6066 0.488281 98.1457 0.488281C100.236 0.488281 101.28 1.35742 101.28 3.0957C101.28 3.47331 101.232 3.88997 101.134 4.3457L98.5461 16.4941ZM98.8781 4.3457C98.9172 4.15039 98.9367 3.97135 98.9367 3.80859C98.9367 3.07943 98.5168 2.71159 97.677 2.70508H97.6574C96.6288 2.70508 96.0005 3.25195 95.7727 4.3457L93.1848 16.4941C93.1457 16.6895 93.1262 16.8685 93.1262 17.0312C93.1262 17.7669 93.5494 18.1348 94.3957 18.1348C95.4309 18.1348 96.0624 17.5879 96.2902 16.4941L98.8781 4.3457ZM100.338 20.0391L104.43 0.800781H106.686L103.062 17.8223H107.623L107.154 20.0391H100.338Z" fill="black"/>
</svg>
