<svg width="166" height="56" viewBox="0 0 166 56" fill="none" xmlns="http://www.w3.org/2000/svg">
<rect width="36.5809" height="36.042" transform="matrix(0.967018 -0.254709 0.262986 0.9648 100 10.3174)" fill="#E0FF00"/>
<path d="M129.607 1.29604C51.4297 -1.54933 -10.7583 16.4303 2.88775 41.6999C16.5338 66.9695 198.739 50.3985 150.075 15.5215C104.022 -17.4849 -81.8971 45.1133 47.7345 54.7893C97.2268 56.5725 136.347 46.713 165 37.4062" stroke="black"/>
<path d="M21.9316 40.5C22.1895 40.7461 22.4883 40.916 22.8281 41.0098C23.168 41.1152 23.5078 41.1504 23.8477 41.1152C24.1875 41.0801 24.5098 40.9805 24.8145 40.8164C25.1191 40.6523 25.3711 40.4238 25.5703 40.1309C25.9922 39.5332 26.2617 38.8711 26.3789 38.1445C26.5078 37.4297 26.5605 36.709 26.5371 35.9824C25.9746 36.0762 25.3945 36.0938 24.7969 36.0352C24.2109 35.9883 23.6543 35.8652 23.127 35.666C22.8574 35.5605 22.5996 35.4375 22.3535 35.2969C22.1191 35.1445 21.9316 34.9336 21.791 34.6641C21.5449 34.207 21.4395 33.7031 21.4746 33.1523C21.498 32.625 21.5859 32.1152 21.7383 31.623C21.9023 31.1191 22.084 30.6211 22.2832 30.1289C22.3887 29.8945 22.5 29.6484 22.6172 29.3906C22.7461 29.1211 22.9102 28.8809 23.1094 28.6699C23.3086 28.4473 23.5371 28.2773 23.7949 28.1602C24.0527 28.043 24.3281 27.9727 24.6211 27.9492C24.5742 27.7852 24.5742 27.6328 24.6211 27.4922C24.668 27.3398 24.7676 27.2168 24.9199 27.123C25.0723 27.0293 25.248 27.0059 25.4473 27.0527C25.6582 27.0996 25.8047 27.2051 25.8867 27.3691C25.9336 27.4746 25.9746 27.5801 26.0098 27.6855C26.0566 27.791 26.0977 27.8965 26.1328 28.002C26.3672 28.6348 26.5781 29.2734 26.7656 29.918C26.9648 30.5625 27.1523 31.2129 27.3281 31.8691C27.5391 32.6426 27.6973 33.4277 27.8027 34.2246C27.9082 35.0215 27.9492 35.8301 27.9258 36.6504C27.9141 37.1074 27.873 37.5762 27.8027 38.0566C27.7441 38.5371 27.6387 39 27.4863 39.4453C27.334 39.8906 27.1348 40.3125 26.8887 40.7109C26.6426 41.1211 26.3262 41.4727 25.9395 41.7656C25.5762 42.0469 25.1719 42.2461 24.7266 42.3633C24.293 42.4922 23.8477 42.5449 23.3906 42.5215C22.9453 42.498 22.5059 42.3984 22.0723 42.2227C21.6504 42.0469 21.2754 41.8008 20.9473 41.4844C20.7832 41.332 20.7129 41.1621 20.7363 40.9746C20.7598 40.7988 20.8359 40.6465 20.9648 40.5176C21.082 40.4004 21.2285 40.3301 21.4043 40.3066C21.5918 40.2832 21.7676 40.3477 21.9316 40.5ZM23.8828 34.4355C24.293 34.541 24.7148 34.6172 25.1484 34.6641C25.5938 34.6992 26.0215 34.6699 26.4316 34.5762C26.3613 33.9785 26.2559 33.4043 26.1152 32.8535C25.9863 32.3027 25.8398 31.7461 25.6758 31.1836C25.582 30.8555 25.4824 30.5332 25.377 30.2168C25.2832 29.9004 25.1836 29.584 25.0781 29.2676C25.043 29.291 25.002 29.3086 24.9551 29.3203C24.9082 29.3203 24.8555 29.3262 24.7969 29.3379C24.4453 29.3379 24.1758 29.4961 23.9883 29.8125C23.8594 30.0117 23.7539 30.2227 23.6719 30.4453C23.6484 30.5039 23.625 30.5625 23.6016 30.6211C23.5781 30.668 23.5547 30.7207 23.5312 30.7793C23.3555 31.2012 23.2031 31.6113 23.0742 32.0098C22.957 32.3965 22.8867 32.7773 22.8633 33.1523V33.4688C22.875 33.5508 22.8867 33.6152 22.8984 33.6621C22.9219 33.7676 22.9336 33.832 22.9336 33.8555C22.9453 33.8789 22.9805 33.9375 23.0391 34.0312C23.1094 34.0898 23.1738 34.1367 23.2324 34.1719C23.291 34.207 23.3262 34.2305 23.3379 34.2422C23.4316 34.2773 23.5195 34.3125 23.6016 34.3477C23.6953 34.3828 23.7891 34.4121 23.8828 34.4355ZM30.1399 28.8457C30.1516 28.623 30.2337 28.459 30.386 28.3535C30.5384 28.2363 30.7024 28.1777 30.8782 28.1777C31.054 28.1777 31.2063 28.2363 31.3352 28.3535C31.4759 28.459 31.5403 28.623 31.5286 28.8457C31.5286 28.916 31.5227 28.9922 31.511 29.0742C31.511 29.1445 31.511 29.2148 31.511 29.2852C31.886 29.0977 32.2786 28.9395 32.6888 28.8105C33.1106 28.6699 33.5266 28.582 33.9368 28.5469C34.3587 28.5117 34.763 28.5469 35.1497 28.6523C35.5481 28.7461 35.9114 28.9336 36.2395 29.2148C36.4036 29.3672 36.4739 29.5312 36.4505 29.707C36.4388 29.8828 36.3684 30.0352 36.2395 30.1641C36.1223 30.2812 35.97 30.3574 35.7825 30.3926C35.595 30.416 35.4134 30.3574 35.2376 30.2168C35.1087 30.1113 34.9622 30.0352 34.7981 29.9883C34.6458 29.9414 34.4759 29.9238 34.2884 29.9355C34.1126 29.9355 33.9309 29.9531 33.7434 29.9883C33.5677 30.0234 33.3977 30.0645 33.2337 30.1113C32.6126 30.3105 32.0325 30.5742 31.4934 30.9023C31.5169 31.4766 31.552 32.0508 31.5989 32.625C31.6458 33.1055 31.6868 33.6035 31.722 34.1191C31.7571 34.623 31.8567 35.1035 32.0208 35.5605C32.0911 35.7715 32.0735 35.9473 31.968 36.0879C31.8743 36.2402 31.7395 36.3398 31.5638 36.3867C31.3997 36.4336 31.2239 36.4219 31.0364 36.3516C30.8606 36.2812 30.7376 36.1406 30.6673 35.9297C30.5735 35.6602 30.5091 35.3848 30.4739 35.1035C30.4388 34.8223 30.4036 34.541 30.3684 34.2598C30.345 33.9902 30.3157 33.7207 30.2805 33.4512C30.2571 33.1699 30.2337 32.8945 30.2102 32.625C30.1516 31.9922 30.1106 31.3652 30.0872 30.7441C30.0755 30.1113 30.093 29.4785 30.1399 28.8457ZM39.2447 35.5254C38.8463 35.3496 38.5298 35.1094 38.2955 34.8047C38.0728 34.4883 37.9146 34.1426 37.8209 33.7676C37.7388 33.3926 37.7154 33.0059 37.7505 32.6074C37.7857 32.1973 37.8677 31.8047 37.9966 31.4297C38.1021 31.1367 38.2193 30.832 38.3482 30.5156C38.4888 30.1992 38.6529 29.9062 38.8404 29.6367C39.0279 29.3672 39.2505 29.1387 39.5084 28.9512C39.7662 28.752 40.0709 28.623 40.4224 28.5645C40.7857 28.5059 41.149 28.4883 41.5123 28.5117C41.8873 28.5234 42.2564 28.5586 42.6197 28.6172C42.7838 28.6406 42.942 28.6816 43.0943 28.7402C43.2466 28.7871 43.399 28.8398 43.5513 28.8984C43.563 28.7227 43.6392 28.5762 43.7798 28.459C43.9322 28.3418 44.0904 28.2832 44.2545 28.2832C44.4537 28.2832 44.6119 28.3535 44.7291 28.4941C44.858 28.623 44.9341 28.7812 44.9576 28.9688C45.0162 29.5078 45.0396 30.0469 45.0279 30.5859C45.0279 31.125 45.0103 31.6641 44.9752 32.2031C44.9517 32.7422 44.9283 33.2812 44.9048 33.8203C44.8931 34.3594 44.899 34.8984 44.9224 35.4375C44.9341 35.6602 44.8638 35.8301 44.7115 35.9473C44.5709 36.0527 44.4127 36.1055 44.2369 36.1055C44.0611 36.1055 43.897 36.0527 43.7447 35.9473C43.6041 35.8301 43.5279 35.6602 43.5162 35.4375C42.8482 35.7188 42.1392 35.8828 41.3892 35.9297C40.6392 35.9648 39.9244 35.8301 39.2447 35.5254ZM39.3677 31.7109C39.2974 31.9219 39.233 32.1621 39.1744 32.4316C39.1158 32.7012 39.0982 32.959 39.1216 33.2051C39.1451 33.4512 39.2213 33.6797 39.3502 33.8906C39.4791 34.0898 39.69 34.2305 39.983 34.3125C40.5806 34.5 41.1783 34.5527 41.7759 34.4707C42.3853 34.3887 42.9537 34.1777 43.481 33.8379C43.5279 33.2637 43.563 32.707 43.5865 32.168C43.6216 31.6289 43.6334 31.084 43.6216 30.5332C43.4224 30.4043 43.2173 30.293 43.0064 30.1992C42.8072 30.0938 42.5845 30.0234 42.3384 29.9883C42.0923 29.9531 41.8287 29.9297 41.5474 29.918C41.2779 29.8945 41.0142 29.8945 40.7564 29.918C40.733 29.918 40.6685 29.9355 40.563 29.9707C40.4693 29.9941 40.4166 30.0117 40.4048 30.0234C40.2877 30.082 40.1822 30.1758 40.0884 30.3047C39.9361 30.5156 39.8013 30.7441 39.6841 30.9902C39.567 31.2246 39.4615 31.4648 39.3677 31.7109ZM52.7791 29.8652C53.0018 29.8652 53.1659 29.9355 53.2713 30.0762C53.3885 30.2168 53.4471 30.375 53.4471 30.5508C53.4471 30.7266 53.3885 30.8906 53.2713 31.043C53.1659 31.1836 53.0018 31.2539 52.7791 31.2539C52.4979 31.2656 52.2166 31.2656 51.9354 31.2539C51.6659 31.2305 51.3963 31.207 51.1268 31.1836C51.1385 32.1094 51.1209 33.0352 51.0741 33.9609C51.0389 34.8867 50.9452 35.8066 50.7928 36.7207C50.7694 36.9199 50.6639 37.0664 50.4764 37.1602C50.2889 37.2539 50.1073 37.2715 49.9315 37.2129C49.7323 37.1543 49.5916 37.043 49.5096 36.8789C49.4393 36.7266 49.4217 36.5508 49.4569 36.3516C49.5975 35.4609 49.6737 34.5703 49.6854 33.6797C49.7088 32.7891 49.7088 31.8926 49.6854 30.9902C49.2401 30.9199 48.7889 30.8496 48.3319 30.7793C47.8748 30.6973 47.4237 30.627 46.9784 30.5684C46.7791 30.5449 46.6385 30.4395 46.5565 30.252C46.4627 30.0527 46.4393 29.8711 46.4862 29.707C46.5448 29.5078 46.6561 29.373 46.8202 29.3027C46.9842 29.2207 47.16 29.1914 47.3475 29.2148C47.7342 29.2734 48.1209 29.3379 48.5077 29.4082C48.8944 29.4668 49.287 29.5254 49.6854 29.584C49.6737 29.5254 49.6678 29.4375 49.6678 29.3203C49.6678 28.2656 49.662 27.2227 49.6502 26.1914C49.6502 25.1602 49.703 24.1172 49.8084 23.0625C49.8319 22.875 49.9022 22.7109 50.0194 22.5703C50.1483 22.4297 50.3123 22.3594 50.5116 22.3594C50.6873 22.3594 50.8514 22.4297 51.0037 22.5703C51.1678 22.7109 51.2381 22.875 51.2147 23.0625C51.0975 24.1875 51.0389 25.3066 51.0389 26.4199C51.0506 27.5215 51.0682 28.6406 51.0916 29.7773C51.3729 29.8008 51.6541 29.8242 51.9354 29.8477C52.2166 29.8594 52.4979 29.8652 52.7791 29.8652ZM55.1866 35.8242C55.2804 35.2617 55.3859 34.7109 55.503 34.1719C55.632 33.6211 55.7257 33.0645 55.7843 32.502C55.8312 31.9512 55.837 31.4121 55.8019 30.8848C55.7784 30.3457 55.8136 29.8008 55.9073 29.25C55.9308 29.0625 56.0363 28.9219 56.2238 28.8281C56.423 28.7344 56.6046 28.7109 56.7687 28.7578C56.9679 28.8164 57.1027 28.9277 57.173 29.0918C57.255 29.2559 57.2843 29.4316 57.2609 29.6191C57.214 29.8887 57.1905 30.1641 57.1905 30.4453C57.2023 30.7266 57.214 31.0078 57.2257 31.2891C57.2257 31.8281 57.1905 32.3672 57.1202 32.9062C57.0499 33.4688 56.9562 34.0195 56.839 34.5586C56.7335 35.0977 56.6339 35.6426 56.5402 36.1934C56.505 36.3809 56.3937 36.5215 56.2062 36.6152C56.0187 36.709 55.8429 36.7324 55.6788 36.6855C55.4796 36.627 55.339 36.5156 55.257 36.3516C55.1749 36.1875 55.1515 36.0117 55.1866 35.8242ZM56.0304 27.7383C55.9484 27.7148 55.8663 27.6797 55.7843 27.6328C55.7023 27.5742 55.6437 27.5039 55.6085 27.4219C55.5734 27.3281 55.5441 27.2461 55.5206 27.1758C55.4972 27.1055 55.4855 27.0234 55.4855 26.9297C55.4855 26.8242 55.503 26.7188 55.5382 26.6133C55.5851 26.4023 55.6788 26.25 55.8195 26.1562C55.8663 26.0859 55.9308 26.0332 56.0128 25.998C56.1417 25.916 56.2882 25.875 56.4523 25.875C56.6163 25.8633 56.7628 25.9043 56.8917 25.998C56.9503 26.0449 57.0089 26.0977 57.0675 26.1562C57.1261 26.2031 57.173 26.2676 57.2081 26.3496C57.2316 26.4082 57.255 26.4727 57.2784 26.543C57.3136 26.6133 57.3253 26.6836 57.3136 26.7539C57.3019 26.8359 57.2902 26.9121 57.2784 26.9824C57.2667 27.0527 57.2374 27.1172 57.1905 27.1758C57.132 27.2578 57.0851 27.3164 57.0499 27.3516C57.0148 27.3867 56.9562 27.4336 56.8741 27.4922C56.8273 27.5391 56.757 27.5742 56.6632 27.5977C56.4171 27.7383 56.2062 27.7852 56.0304 27.7383ZM60.5824 32.0977C60.2777 31.875 60.0609 31.5996 59.932 31.2715C59.8031 30.9316 59.7973 30.5742 59.9145 30.1992C60.0316 29.8594 60.2133 29.5547 60.4594 29.2852C60.7055 29.0156 60.9867 28.7988 61.3031 28.6348C61.6547 28.4473 62.0297 28.3008 62.4281 28.1953C62.8266 28.0898 63.2309 28.0312 63.641 28.0195C64.0512 28.0078 64.4555 28.0488 64.8539 28.1426C65.2641 28.2246 65.6508 28.3594 66.0141 28.5469C66.2133 28.6523 66.3246 28.793 66.348 28.9688C66.3715 29.1445 66.3363 29.3086 66.2426 29.4609C66.1605 29.6133 66.0316 29.7246 65.8559 29.7949C65.6801 29.8652 65.4926 29.8477 65.2934 29.7422C65.0121 29.5898 64.6957 29.4902 64.3441 29.4434C63.9926 29.3965 63.6352 29.3965 63.2719 29.4434C62.9203 29.4785 62.5863 29.5664 62.2699 29.707C61.9535 29.8477 61.6898 30.0293 61.4789 30.252C61.4203 30.3105 61.3793 30.3516 61.3559 30.375C61.3441 30.3984 61.3207 30.4512 61.2855 30.5332L61.2504 30.7266C61.2855 30.832 61.3148 30.8965 61.3383 30.9199C61.5727 31.0723 61.8129 31.1719 62.059 31.2188C62.3168 31.2539 62.5746 31.2773 62.8324 31.2891C63.1957 31.3125 63.5648 31.3359 63.9398 31.3594C64.3266 31.3711 64.6957 31.418 65.0473 31.5C65.4105 31.582 65.7445 31.7168 66.0492 31.9043C66.3539 32.0918 66.6117 32.3672 66.8227 32.7305C67.057 33.1406 67.1625 33.5684 67.1391 34.0137C67.1273 34.4473 66.9574 34.8398 66.6293 35.1914C66.3012 35.543 65.9203 35.7891 65.4867 35.9297C65.0531 36.0586 64.6137 36.1523 64.1684 36.2109C63.7699 36.2578 63.3539 36.2695 62.9203 36.2461C62.4984 36.2227 62.0883 36.1523 61.6898 36.0352C61.3031 35.9297 60.9398 35.7656 60.6 35.543C60.2602 35.3086 59.9789 35.0039 59.7562 34.6289C59.6508 34.4414 59.6332 34.2656 59.7035 34.1016C59.7738 33.9258 59.8793 33.7969 60.0199 33.7148C60.1723 33.6211 60.3363 33.5859 60.5121 33.6094C60.6996 33.6328 60.852 33.7383 60.9691 33.9258C61.1332 34.1953 61.3617 34.4004 61.6547 34.541C61.9477 34.6816 62.2641 34.7812 62.6039 34.8398C62.9555 34.8867 63.307 34.8984 63.6586 34.875C64.0102 34.8398 64.3266 34.793 64.6078 34.7344C64.7602 34.6992 64.9125 34.6523 65.0648 34.5938C65.2289 34.5234 65.3637 34.4414 65.4691 34.3477C65.5863 34.2539 65.6684 34.1484 65.7152 34.0312C65.7621 33.9023 65.7562 33.7617 65.6977 33.6094C65.5805 33.3164 65.3812 33.1055 65.1 32.9766C64.8305 32.8477 64.5434 32.7715 64.2387 32.748C63.934 32.7246 63.6234 32.7129 63.307 32.7129C62.9906 32.7129 62.6742 32.7012 62.3578 32.6777C62.0414 32.6426 61.7309 32.584 61.4262 32.502C61.1215 32.4199 60.8402 32.2852 60.5824 32.0977ZM82.1494 28.0898C82.3134 28.1836 82.4248 28.3242 82.4834 28.5117C82.542 28.6992 82.5127 28.875 82.3955 29.0391C82.1025 29.4609 81.8798 29.9238 81.7275 30.4277C81.5869 30.9316 81.4228 31.4238 81.2353 31.9043C81.0361 32.4199 80.8134 32.918 80.5673 33.3984C80.333 33.8789 80.081 34.3652 79.8115 34.8574C79.788 34.916 79.7588 34.9688 79.7236 35.0156C79.7002 35.0508 79.6767 35.0977 79.6533 35.1562C79.7002 35.3438 79.6709 35.5137 79.5654 35.666C79.4716 35.8066 79.3427 35.9062 79.1787 35.9648C78.6982 36.7852 78.2119 37.5938 77.7197 38.3906C77.2392 39.1992 76.7588 40.0137 76.2783 40.834C76.1611 41.0332 76.0088 41.1445 75.8213 41.168C75.6455 41.1914 75.4814 41.1562 75.3291 41.0625C75.1767 40.9805 75.0654 40.8516 74.9951 40.6758C74.9248 40.5117 74.9482 40.3301 75.0654 40.1309C75.5576 39.2871 76.0556 38.4492 76.5595 37.6172C77.0634 36.7969 77.5615 35.9648 78.0537 35.1211C77.5263 34.1719 77.0224 33.2168 76.542 32.2559C76.0615 31.2832 75.5693 30.3164 75.0654 29.3555C74.9599 29.1562 74.9423 28.9746 75.0127 28.8105C75.0947 28.6348 75.206 28.5059 75.3466 28.4238C75.499 28.3301 75.663 28.2949 75.8388 28.3184C76.0263 28.3418 76.1728 28.4531 76.2783 28.6523C76.7119 29.4961 77.1396 30.3398 77.5615 31.1836C77.9834 32.0156 78.417 32.8477 78.8623 33.6797C79.2959 32.8828 79.6826 32.0449 80.0224 31.166C80.1982 30.6855 80.3623 30.1992 80.5146 29.707C80.6787 29.2031 80.9072 28.7461 81.2002 28.3359C81.3056 28.1719 81.4463 28.0664 81.622 28.0195C81.7978 27.9609 81.9736 27.9844 82.1494 28.0898ZM94.6812 27.8965C95.0562 27.8496 95.4488 27.8379 95.8589 27.8613C96.2691 27.873 96.6616 27.9434 97.0366 28.0723C97.4116 28.1895 97.7515 28.3711 98.0562 28.6172C98.3609 28.8633 98.5952 29.1855 98.7593 29.584C98.8765 29.8652 98.9351 30.1523 98.9351 30.4453C98.9468 30.7266 98.9058 31.002 98.812 31.2715C98.73 31.5293 98.6011 31.7812 98.4253 32.0273C98.2613 32.2617 98.0679 32.4785 97.8452 32.6777C97.3648 33.1113 96.8374 33.4805 96.2632 33.7852C95.689 34.0898 95.0855 34.3242 94.4527 34.4883C94.1831 34.5586 93.9019 34.623 93.6089 34.6816C93.3277 34.7285 93.0406 34.752 92.7476 34.752C92.4546 34.752 92.1675 34.7227 91.8863 34.6641C91.605 34.5938 91.3413 34.4824 91.0952 34.3301C90.9195 34.2246 90.814 34.084 90.7788 33.9082C90.7085 33.709 90.6323 33.5215 90.5503 33.3457C90.4683 33.1699 90.3863 32.9883 90.3042 32.8008C90.2339 32.6133 90.1753 32.4258 90.1284 32.2383C90.0816 32.0508 90.0581 31.8574 90.0581 31.6582C90.0581 31.2598 90.1402 30.8848 90.3042 30.5332C90.48 30.1699 90.7144 29.8535 91.0073 29.584C91.4995 29.1152 92.0679 28.7402 92.7124 28.459C93.357 28.1777 94.0132 27.9902 94.6812 27.8965ZM96.6675 29.4082C96.3511 29.291 96.0113 29.2324 95.648 29.2324C95.2613 29.2207 94.8745 29.2617 94.4878 29.3555C94.1011 29.4375 93.732 29.5547 93.3804 29.707C93.0523 29.8359 92.7124 30.0176 92.3609 30.252C92.021 30.4746 91.7691 30.75 91.605 31.0781C91.5113 31.2539 91.4644 31.4355 91.4644 31.623C91.4761 31.7988 91.5054 31.9805 91.5523 32.168C91.6109 32.3438 91.6812 32.5254 91.7632 32.7129C91.857 32.8887 91.939 33.0645 92.0093 33.2402C92.1968 33.2871 92.314 33.3105 92.3609 33.3105C92.3843 33.3223 92.4136 33.3281 92.4488 33.3281C92.4839 33.3281 92.5132 33.3281 92.5366 33.3281C92.771 33.3516 92.982 33.3457 93.1695 33.3105C93.2984 33.3105 93.4624 33.2871 93.6616 33.2402C93.9663 33.1816 94.2593 33.1055 94.5406 33.0117C94.8218 32.9062 95.0796 32.7949 95.314 32.6777C95.5835 32.5488 95.8472 32.4082 96.105 32.2559C96.3628 32.1035 96.5796 31.9453 96.7554 31.7812C96.8726 31.6758 96.9839 31.5645 97.0894 31.4473C97.148 31.3887 97.189 31.3418 97.2124 31.3066C97.271 31.2246 97.3179 31.166 97.3531 31.1309C97.3882 31.084 97.4175 31.0312 97.4409 30.9727C97.4878 30.8906 97.5113 30.8262 97.5113 30.7793C97.523 30.7559 97.5288 30.7266 97.5288 30.6914C97.5406 30.6562 97.5523 30.627 97.564 30.6035V30.4102C97.5523 30.3633 97.5464 30.3281 97.5464 30.3047C97.5464 30.2812 97.5406 30.2578 97.5288 30.2344C97.4937 30.1523 97.4585 30.0938 97.4234 30.0586C97.3999 30.0117 97.3706 29.9648 97.3355 29.918C97.3472 29.9297 97.3296 29.9121 97.2827 29.8652C97.2476 29.8184 97.2241 29.7891 97.2124 29.7773L97.0718 29.6367C97.0132 29.6016 96.9488 29.5605 96.8784 29.5137C96.8081 29.4668 96.7378 29.4316 96.6675 29.4082ZM100.85 34.3125C100.85 33.8086 100.886 33.2988 100.956 32.7832C101.038 32.1621 101.12 31.5469 101.202 30.9375C101.284 30.3164 101.319 29.6895 101.307 29.0566C101.307 28.834 101.378 28.6641 101.518 28.5469C101.659 28.4297 101.817 28.3711 101.993 28.3711C102.169 28.3711 102.333 28.4297 102.485 28.5469C102.637 28.6641 102.714 28.834 102.714 29.0566C103.171 29.0215 103.604 29.0039 104.014 29.0039C104.483 29.0156 104.882 29.1504 105.21 29.4082C105.538 29.666 105.784 30.0117 105.948 30.4453C106.089 30.8438 106.171 31.2539 106.194 31.6758C106.218 32.0977 106.235 32.5195 106.247 32.9414C106.259 33.5391 106.276 34.1367 106.3 34.7344C106.323 35.3203 106.335 35.9121 106.335 36.5098C106.335 36.7441 106.259 36.9141 106.106 37.0195C105.966 37.1367 105.807 37.1953 105.632 37.1953C105.468 37.1953 105.309 37.1367 105.157 37.0195C105.016 36.9141 104.946 36.7441 104.946 36.5098C104.946 35.9473 104.934 35.3965 104.911 34.8574C104.899 34.3184 104.882 33.7676 104.858 33.2051C104.835 32.9004 104.823 32.5898 104.823 32.2734C104.835 31.9453 104.811 31.6465 104.753 31.377C104.718 31.2129 104.682 31.0723 104.647 30.9551C104.612 30.8262 104.548 30.7031 104.454 30.5859C104.43 30.5391 104.378 30.498 104.296 30.4629C104.225 30.4277 104.161 30.4102 104.102 30.4102C103.927 30.4102 103.762 30.4219 103.61 30.4453C103.458 30.4688 103.3 30.5039 103.136 30.5508C103.065 30.5742 102.995 30.5977 102.925 30.6211C102.854 30.6445 102.79 30.6738 102.731 30.709C102.614 31.1309 102.526 31.5352 102.468 31.9219C102.421 32.2969 102.374 32.6777 102.327 33.0645C102.292 33.3457 102.268 33.6328 102.257 33.9258C102.257 34.207 102.245 34.4883 102.221 34.7695C102.21 35.0508 102.175 35.332 102.116 35.6133C102.069 35.8945 101.981 36.1641 101.852 36.4219C101.747 36.6211 101.606 36.7324 101.43 36.7559C101.255 36.791 101.091 36.7617 100.938 36.668C100.798 36.5859 100.686 36.457 100.604 36.2812C100.534 36.1055 100.546 35.918 100.639 35.7188C100.745 35.5078 100.804 35.2793 100.815 35.0332C100.827 34.7871 100.839 34.5469 100.85 34.3125ZM109.85 22.2012C110.061 22.2012 110.225 22.2715 110.342 22.4121C110.459 22.5527 110.529 22.7168 110.553 22.9043C110.67 24.0176 110.734 25.1309 110.746 26.2441C110.758 27.3574 110.74 28.4707 110.693 29.584C110.658 30.6973 110.6 31.8105 110.518 32.9238C110.436 34.0371 110.354 35.1445 110.272 36.2461C110.248 36.4453 110.172 36.6094 110.043 36.7383C109.926 36.8789 109.768 36.9492 109.568 36.9492C109.393 36.9492 109.229 36.8789 109.076 36.7383C108.924 36.6094 108.854 36.4453 108.865 36.2461C108.947 35.1445 109.029 34.0371 109.111 32.9238C109.205 31.8105 109.27 30.6973 109.305 29.584C109.352 28.4707 109.369 27.3574 109.357 26.2441C109.346 25.1309 109.281 24.0176 109.164 22.9043C109.141 22.7168 109.205 22.5527 109.357 22.4121C109.51 22.2715 109.674 22.2012 109.85 22.2012ZM113.294 35.8242C113.388 35.2617 113.494 34.7109 113.611 34.1719C113.74 33.6211 113.833 33.0645 113.892 32.502C113.939 31.9512 113.945 31.4121 113.91 30.8848C113.886 30.3457 113.921 29.8008 114.015 29.25C114.038 29.0625 114.144 28.9219 114.331 28.8281C114.531 28.7344 114.712 28.7109 114.876 28.7578C115.076 28.8164 115.21 28.9277 115.281 29.0918C115.363 29.2559 115.392 29.4316 115.369 29.6191C115.322 29.8887 115.298 30.1641 115.298 30.4453C115.31 30.7266 115.322 31.0078 115.333 31.2891C115.333 31.8281 115.298 32.3672 115.228 32.9062C115.158 33.4688 115.064 34.0195 114.947 34.5586C114.841 35.0977 114.742 35.6426 114.648 36.1934C114.613 36.3809 114.501 36.5215 114.314 36.6152C114.126 36.709 113.951 36.7324 113.786 36.6855C113.587 36.627 113.447 36.5156 113.365 36.3516C113.283 36.1875 113.259 36.0117 113.294 35.8242ZM114.138 27.7383C114.056 27.7148 113.974 27.6797 113.892 27.6328C113.81 27.5742 113.751 27.5039 113.716 27.4219C113.681 27.3281 113.652 27.2461 113.628 27.1758C113.605 27.1055 113.593 27.0234 113.593 26.9297C113.593 26.8242 113.611 26.7188 113.646 26.6133C113.693 26.4023 113.786 26.25 113.927 26.1562C113.974 26.0859 114.038 26.0332 114.12 25.998C114.249 25.916 114.396 25.875 114.56 25.875C114.724 25.8633 114.87 25.9043 114.999 25.998C115.058 26.0449 115.117 26.0977 115.175 26.1562C115.234 26.2031 115.281 26.2676 115.316 26.3496C115.339 26.4082 115.363 26.4727 115.386 26.543C115.421 26.6133 115.433 26.6836 115.421 26.7539C115.41 26.8359 115.398 26.9121 115.386 26.9824C115.374 27.0527 115.345 27.1172 115.298 27.1758C115.24 27.2578 115.193 27.3164 115.158 27.3516C115.122 27.3867 115.064 27.4336 114.982 27.4922C114.935 27.5391 114.865 27.5742 114.771 27.5977C114.525 27.7383 114.314 27.7852 114.138 27.7383ZM118.145 34.3125C118.145 33.8086 118.18 33.2988 118.251 32.7832C118.333 32.1621 118.415 31.5469 118.497 30.9375C118.579 30.3164 118.614 29.6895 118.602 29.0566C118.602 28.834 118.673 28.6641 118.813 28.5469C118.954 28.4297 119.112 28.3711 119.288 28.3711C119.464 28.3711 119.628 28.4297 119.78 28.5469C119.932 28.6641 120.008 28.834 120.008 29.0566C120.465 29.0215 120.899 29.0039 121.309 29.0039C121.778 29.0156 122.176 29.1504 122.505 29.4082C122.833 29.666 123.079 30.0117 123.243 30.4453C123.383 30.8438 123.465 31.2539 123.489 31.6758C123.512 32.0977 123.53 32.5195 123.542 32.9414C123.553 33.5391 123.571 34.1367 123.594 34.7344C123.618 35.3203 123.63 35.9121 123.63 36.5098C123.63 36.7441 123.553 36.9141 123.401 37.0195C123.26 37.1367 123.102 37.1953 122.926 37.1953C122.762 37.1953 122.604 37.1367 122.452 37.0195C122.311 36.9141 122.241 36.7441 122.241 36.5098C122.241 35.9473 122.229 35.3965 122.206 34.8574C122.194 34.3184 122.176 33.7676 122.153 33.2051C122.13 32.9004 122.118 32.5898 122.118 32.2734C122.13 31.9453 122.106 31.6465 122.048 31.377C122.012 31.2129 121.977 31.0723 121.942 30.9551C121.907 30.8262 121.842 30.7031 121.749 30.5859C121.725 30.5391 121.673 30.498 121.59 30.4629C121.52 30.4277 121.456 30.4102 121.397 30.4102C121.221 30.4102 121.057 30.4219 120.905 30.4453C120.753 30.4688 120.594 30.5039 120.43 30.5508C120.36 30.5742 120.29 30.5977 120.219 30.6211C120.149 30.6445 120.085 30.6738 120.026 30.709C119.909 31.1309 119.821 31.5352 119.762 31.9219C119.715 32.2969 119.669 32.6777 119.622 33.0645C119.587 33.3457 119.563 33.6328 119.551 33.9258C119.551 34.207 119.54 34.4883 119.516 34.7695C119.505 35.0508 119.469 35.332 119.411 35.6133C119.364 35.8945 119.276 36.1641 119.147 36.4219C119.042 36.6211 118.901 36.7324 118.725 36.7559C118.549 36.791 118.385 36.7617 118.233 36.668C118.092 36.5859 117.981 36.457 117.899 36.2812C117.829 36.1055 117.84 35.918 117.934 35.7188C118.04 35.5078 118.098 35.2793 118.11 35.0332C118.122 34.7871 118.133 34.5469 118.145 34.3125ZM126.582 29.1797C126.805 28.875 127.068 28.6055 127.373 28.3711C127.689 28.1367 128.023 27.9551 128.375 27.8262C128.726 27.6855 129.09 27.6152 129.465 27.6152C129.84 27.6035 130.215 27.6738 130.59 27.8262C130.953 27.9668 131.281 28.1602 131.574 28.4062C131.867 28.6406 132.096 28.9453 132.26 29.3203C132.389 29.6016 132.465 29.9062 132.488 30.2344C132.512 30.5625 132.424 30.8613 132.225 31.1309C132.049 31.377 131.832 31.5645 131.574 31.6934C131.328 31.8223 131.059 31.916 130.766 31.9746C130.484 32.0332 130.191 32.0625 129.887 32.0625C129.594 32.0625 129.312 32.0566 129.043 32.0449C128.738 32.0332 128.434 32.0098 128.129 31.9746C127.836 31.9395 127.537 31.9043 127.232 31.8691C127.326 32.3965 127.514 32.8652 127.795 33.2754C128.076 33.6855 128.457 33.9961 128.937 34.207C129.066 34.2539 129.166 34.2891 129.236 34.3125C129.271 34.3242 129.301 34.3359 129.324 34.3477C129.359 34.3477 129.394 34.3477 129.43 34.3477C129.523 34.3594 129.6 34.3711 129.658 34.3828C129.728 34.3828 129.793 34.377 129.851 34.3652C129.934 34.3535 129.986 34.3477 130.01 34.3477C130.045 34.3359 130.08 34.3242 130.115 34.3125C130.244 34.2773 130.355 34.2363 130.449 34.1895C130.555 34.1426 130.678 34.0664 130.818 33.9609C130.889 33.9023 130.982 33.8145 131.1 33.6973C131.217 33.5801 131.316 33.4746 131.398 33.3809C131.516 33.2168 131.656 33.1055 131.82 33.0469C131.996 32.9883 132.172 33.0117 132.348 33.1172C132.5 33.2109 132.605 33.3574 132.664 33.5566C132.734 33.7441 132.711 33.9199 132.594 34.084C132.254 34.541 131.85 34.9336 131.381 35.2617C130.924 35.5781 130.396 35.748 129.799 35.7715C129.318 35.7949 128.855 35.7129 128.41 35.5254C127.965 35.3262 127.572 35.0625 127.232 34.7344C126.81 34.3242 126.476 33.8496 126.23 33.3105C125.984 32.7715 125.85 32.2207 125.826 31.6582C125.721 31.5762 125.639 31.4766 125.58 31.3594C125.533 31.2305 125.516 31.1016 125.527 30.9727C125.551 30.8438 125.598 30.7266 125.668 30.6211C125.738 30.5039 125.844 30.4277 125.984 30.3926C126.113 29.959 126.312 29.5547 126.582 29.1797ZM130.801 29.6016C130.672 29.4375 130.473 29.291 130.203 29.1621C129.98 29.0684 129.717 29.0215 129.412 29.0215C129.119 29.0215 128.867 29.0742 128.656 29.1797C128.387 29.3086 128.146 29.4902 127.935 29.7246C127.725 29.9473 127.555 30.1992 127.426 30.4805C127.707 30.5156 127.988 30.5508 128.269 30.5859C128.551 30.6211 128.832 30.6445 129.113 30.6562C129.266 30.6562 129.418 30.6562 129.57 30.6562C129.723 30.6562 129.875 30.6504 130.027 30.6387C130.074 30.6387 130.115 30.6387 130.15 30.6387C130.197 30.627 130.244 30.6211 130.291 30.6211C130.396 30.5977 130.473 30.5859 130.519 30.5859C130.578 30.5742 130.637 30.5566 130.695 30.5332C130.742 30.5215 130.801 30.5039 130.871 30.4805C130.93 30.457 130.965 30.4395 130.976 30.4277C130.988 30.416 131.006 30.4043 131.029 30.3926L131.082 30.1816C131.059 30.1348 131.041 30.0938 131.029 30.0586C131.029 30.0117 131.018 29.9707 130.994 29.9355C130.982 29.9004 130.953 29.8477 130.906 29.7773C130.871 29.707 130.836 29.6484 130.801 29.6016ZM135.423 34.7695C135.575 34.8633 135.693 35.0039 135.775 35.1914C135.857 35.3789 135.868 35.5547 135.81 35.7188C135.763 35.8945 135.652 36.041 135.476 36.1582C135.347 36.2988 135.183 36.3633 134.984 36.3516C134.784 36.3516 134.62 36.2871 134.491 36.1582C134.316 36.0293 134.204 35.9121 134.157 35.8066C134.064 35.6426 134.034 35.4785 134.07 35.3145C134.116 35.1504 134.204 35.0098 134.333 34.8926C134.368 34.8691 134.398 34.8457 134.421 34.8223C134.456 34.7871 134.497 34.7578 134.544 34.7344C134.65 34.6875 134.708 34.6641 134.72 34.6641C134.743 34.6641 134.808 34.6523 134.913 34.6289C134.948 34.6289 134.989 34.6348 135.036 34.6465C135.083 34.6465 135.118 34.6523 135.142 34.6641C135.236 34.6758 135.329 34.7109 135.423 34.7695ZM135.282 23.4316C135.282 23.209 135.353 23.0391 135.493 22.9219C135.646 22.8047 135.804 22.7461 135.968 22.7461C136.144 22.7461 136.302 22.8047 136.443 22.9219C136.595 23.0391 136.671 23.209 136.671 23.4316C136.671 24.2051 136.677 24.9844 136.689 25.7695C136.712 26.543 136.712 27.3164 136.689 28.0898C136.677 28.8633 136.63 29.6367 136.548 30.4102C136.478 31.1836 136.349 31.9512 136.161 32.7129C136.103 32.9355 135.991 33.082 135.827 33.1523C135.663 33.2227 135.493 33.2344 135.318 33.1875C135.154 33.1406 135.013 33.0469 134.896 32.9062C134.779 32.7539 134.749 32.5664 134.808 32.3438C134.984 31.6172 135.107 30.8848 135.177 30.1465C135.247 29.3965 135.288 28.6523 135.3 27.9141C135.323 27.1641 135.323 26.4141 135.3 25.6641C135.288 24.9141 135.282 24.1699 135.282 23.4316Z" fill="black"/>
</svg>
